<svg width="1308" height="487" viewBox="0 0 1308 487" fill="none" xmlns="http://www.w3.org/2000/svg">
<g opacity="0.2">
<path opacity="0.2" d="M291.723 227.909C291.723 206.368 284.56 186.795 272.884 172.232C277.02 164.268 278.909 155.462 278.373 146.638C277.837 137.813 274.894 129.259 269.82 121.776C264.747 114.293 257.708 108.125 249.362 103.85C241.016 99.5752 231.637 97.3328 222.101 97.3328C212.566 97.3328 203.186 99.5752 194.841 103.85C186.495 108.125 179.456 114.293 174.382 121.776C169.308 129.259 166.366 137.813 165.83 146.638C165.294 155.462 167.182 164.268 171.318 172.232C159.642 186.795 152.479 206.368 152.479 227.909C152.479 249.449 159.642 269.022 171.318 283.586C167.182 291.55 165.294 300.356 165.83 309.18C166.366 318.005 169.308 326.559 174.382 334.042C179.456 341.525 186.495 347.693 194.841 351.968C203.186 356.243 212.566 358.485 222.101 358.485C231.637 358.485 241.016 356.243 249.362 351.968C257.708 347.693 264.747 341.525 269.82 334.042C274.894 326.559 277.837 318.005 278.373 309.18C278.909 300.356 277.02 291.55 272.884 283.586C284.56 269.022 291.723 249.449 291.723 227.909Z" fill="#FF7477"/>
<path opacity="0.1" d="M291.723 227.909C291.723 206.368 284.56 186.795 272.884 172.232C277.02 164.268 278.909 155.462 278.373 146.638C277.837 137.813 274.894 129.259 269.82 121.776C264.747 114.293 257.708 108.125 249.362 103.85C241.016 99.5752 231.637 97.3328 222.101 97.3328C212.566 97.3328 203.186 99.5752 194.841 103.85C186.495 108.125 179.456 114.293 174.382 121.776C169.308 129.259 166.366 137.813 165.83 146.638C165.294 155.462 167.182 164.268 171.318 172.232C159.642 186.795 152.479 206.368 152.479 227.909C152.479 249.449 159.642 269.022 171.318 283.586C167.182 291.55 165.294 300.356 165.83 309.18C166.366 318.005 169.308 326.559 174.382 334.042C179.456 341.525 186.495 347.693 194.841 351.968C203.186 356.243 212.566 358.485 222.101 358.485C231.637 358.485 241.016 356.243 249.362 351.968C257.708 347.693 264.747 341.525 269.82 334.042C274.894 326.559 277.837 318.005 278.373 309.18C278.909 300.356 277.02 291.55 272.884 283.586C284.56 269.022 291.723 249.449 291.723 227.909Z" fill="#FF7477"/>
<path opacity="0.2" d="M295.038 227.909C295.038 206.368 287.875 186.795 276.2 172.232C280.335 164.268 282.224 155.462 281.688 146.638C281.152 137.813 278.209 129.259 273.136 121.776C268.062 114.293 261.023 108.125 252.677 103.85C244.331 99.5752 234.952 97.3328 225.416 97.3328C215.881 97.3328 206.502 99.5752 198.156 103.85C189.81 108.125 182.771 114.293 177.697 121.776C172.623 129.259 169.681 137.813 169.145 146.638C168.609 155.462 170.497 164.268 174.633 172.232C162.958 186.795 155.795 206.368 155.795 227.909C155.795 249.449 162.958 269.022 174.633 283.586C170.497 291.55 168.609 300.356 169.145 309.18C169.681 318.005 172.623 326.559 177.697 334.042C182.771 341.525 189.81 347.693 198.156 351.968C206.502 356.243 215.881 358.485 225.416 358.485C234.952 358.485 244.331 356.243 252.677 351.968C261.023 347.693 268.062 341.525 273.136 334.042C278.209 326.559 281.152 318.005 281.688 309.18C282.224 300.356 280.335 291.55 276.2 283.586C287.875 269.022 295.038 249.449 295.038 227.909Z" fill="#FF7477"/>
<path opacity="0.2" d="M232.046 426.117H218.786L225.417 223.3L232.046 426.117Z" fill="#FF7477"/>
<path opacity="0.2" d="M227.073 273.988L270.173 257.102L227.073 278.613V273.988Z" fill="#FF7477"/>
<path opacity="0.2" d="M223.156 292.441L210.498 278.613L222.906 300.124L223.156 292.441Z" fill="#FF7477"/>
</g>
<g opacity="0.2">
<path opacity="0.2" d="M947.931 146.848C947.931 125.308 940.768 105.735 929.092 91.171C933.228 83.2073 935.117 74.4012 934.581 65.5768C934.045 56.7525 931.102 48.1984 926.028 40.7152C920.955 33.2319 913.916 27.0643 905.57 22.7893C897.224 18.5144 887.845 16.272 878.309 16.272C868.774 16.272 859.394 18.5144 851.049 22.7893C842.703 27.0643 835.664 33.2319 830.59 40.7152C825.516 48.1984 822.574 56.7525 822.038 65.5768C821.502 74.4012 823.39 83.2073 827.526 91.171C815.85 105.735 808.688 125.308 808.688 146.848C808.688 168.389 815.85 187.962 827.526 202.525C823.39 210.489 821.502 219.295 822.038 228.12C822.574 236.944 825.516 245.498 830.59 252.981C835.664 260.464 842.703 266.632 851.049 270.907C859.394 275.182 868.774 277.424 878.309 277.424C887.845 277.424 897.224 275.182 905.57 270.907C913.916 266.632 920.955 260.464 926.028 252.981C931.102 245.498 934.045 236.944 934.581 228.12C935.117 219.295 933.228 210.489 929.092 202.525C940.768 187.962 947.931 168.389 947.931 146.848Z" fill="#FF7477"/>
<path opacity="0.1" d="M947.931 146.848C947.931 125.308 940.768 105.735 929.092 91.171C933.228 83.2073 935.117 74.4012 934.581 65.5768C934.045 56.7525 931.102 48.1984 926.028 40.7152C920.955 33.2319 913.916 27.0643 905.57 22.7893C897.224 18.5144 887.845 16.272 878.309 16.272C868.774 16.272 859.394 18.5144 851.049 22.7893C842.703 27.0643 835.664 33.2319 830.59 40.7152C825.516 48.1984 822.574 56.7525 822.038 65.5768C821.502 74.4012 823.39 83.2073 827.526 91.171C815.85 105.735 808.688 125.308 808.688 146.848C808.688 168.389 815.85 187.962 827.526 202.525C823.39 210.489 821.502 219.295 822.038 228.12C822.574 236.944 825.516 245.498 830.59 252.981C835.664 260.464 842.703 266.632 851.049 270.907C859.394 275.182 868.774 277.424 878.309 277.424C887.845 277.424 897.224 275.182 905.57 270.907C913.916 266.632 920.955 260.464 926.028 252.981C931.102 245.498 934.045 236.944 934.581 228.12C935.117 219.295 933.228 210.489 929.092 202.525C940.768 187.962 947.931 168.389 947.931 146.848Z" fill="#FF7477"/>
<path opacity="0.2" d="M951.247 146.848C951.247 125.308 944.084 105.735 932.408 91.171C936.544 83.2073 938.432 74.4012 937.897 65.5768C937.361 56.7525 934.418 48.1984 929.344 40.7152C924.271 33.2319 917.231 27.0643 908.886 22.7893C900.54 18.5144 891.161 16.272 881.625 16.272C872.09 16.272 862.71 18.5144 854.365 22.7893C846.019 27.0643 838.98 33.2319 833.906 40.7152C828.832 48.1984 825.89 56.7525 825.354 65.5768C824.818 74.4012 826.706 83.2073 830.842 91.171C819.166 105.735 812.003 125.308 812.003 146.848C812.003 168.389 819.166 187.961 830.842 202.525C826.706 210.489 824.818 219.295 825.354 228.119C825.89 236.944 828.832 245.498 833.906 252.981C838.98 260.464 846.019 266.632 854.365 270.907C862.71 275.182 872.09 277.424 881.625 277.424C891.161 277.424 900.54 275.182 908.886 270.907C917.231 266.632 924.271 260.464 929.344 252.981C934.418 245.498 937.361 236.944 937.897 228.119C938.432 219.295 936.544 210.489 932.408 202.525C944.084 187.961 951.247 168.389 951.247 146.848Z" fill="#FF7477"/>
<path opacity="0.2" d="M888.256 345.056H874.995L881.626 142.239L888.256 345.056Z" fill="#FF7477"/>
<path opacity="0.2" d="M883.283 192.927L926.383 176.041L883.283 197.552V192.927Z" fill="#FF7477"/>
<path opacity="0.2" d="M879.366 211.381L866.707 197.552L879.115 219.063L879.366 211.381Z" fill="#FF7477"/>
</g>
<g opacity="0.2">
<path opacity="0.2" d="M392.843 297.513C392.843 283.59 388.214 270.94 380.668 261.527C383.341 256.38 384.561 250.688 384.215 244.984C383.868 239.281 381.967 233.752 378.687 228.916C375.408 224.079 370.858 220.093 365.464 217.33C360.07 214.567 354.008 213.117 347.845 213.117C341.682 213.117 335.62 214.567 330.225 217.33C324.831 220.093 320.282 224.079 317.002 228.916C313.723 233.752 311.821 239.281 311.475 244.984C311.129 250.688 312.349 256.38 315.022 261.527C307.476 270.94 302.846 283.59 302.846 297.513C302.846 311.435 307.476 324.085 315.022 333.498C312.349 338.646 311.129 344.337 311.475 350.041C311.821 355.744 313.723 361.273 317.002 366.11C320.282 370.946 324.831 374.933 330.225 377.696C335.62 380.459 341.682 381.908 347.845 381.908C354.008 381.908 360.07 380.459 365.464 377.696C370.858 374.933 375.408 370.946 378.687 366.11C381.967 361.273 383.868 355.744 384.215 350.041C384.561 344.337 383.341 338.646 380.668 333.498C388.214 324.085 392.843 311.435 392.843 297.513Z" fill="#FF7477"/>
<path opacity="0.1" d="M392.843 297.513C392.843 283.59 388.214 270.94 380.668 261.527C383.341 256.38 384.561 250.688 384.215 244.984C383.868 239.281 381.967 233.752 378.687 228.916C375.408 224.079 370.858 220.093 365.464 217.33C360.07 214.567 354.008 213.117 347.845 213.117C341.682 213.117 335.62 214.567 330.225 217.33C324.831 220.093 320.282 224.079 317.002 228.916C313.723 233.752 311.821 239.281 311.475 244.984C311.129 250.688 312.349 256.38 315.022 261.527C307.476 270.94 302.846 283.59 302.846 297.513C302.846 311.435 307.476 324.085 315.022 333.498C312.349 338.646 311.129 344.337 311.475 350.041C311.821 355.744 313.723 361.273 317.002 366.11C320.282 370.946 324.831 374.933 330.225 377.696C335.62 380.459 341.682 381.908 347.845 381.908C354.008 381.908 360.07 380.459 365.464 377.696C370.858 374.933 375.408 370.946 378.687 366.11C381.967 361.273 383.868 355.744 384.215 350.041C384.561 344.337 383.341 338.646 380.668 333.498C388.214 324.085 392.843 311.435 392.843 297.513Z" fill="#FF7477"/>
<path opacity="0.2" d="M394.986 297.512C394.986 283.59 390.356 270.939 382.81 261.526C385.483 256.379 386.703 250.687 386.357 244.984C386.011 239.28 384.109 233.752 380.829 228.915C377.55 224.078 373 220.092 367.606 217.329C362.212 214.566 356.15 213.117 349.987 213.117C343.824 213.117 337.762 214.566 332.368 217.329C326.974 220.092 322.424 224.078 319.145 228.915C315.865 233.752 313.963 239.28 313.617 244.984C313.271 250.687 314.491 256.379 317.164 261.526C309.618 270.939 304.988 283.59 304.988 297.512C304.988 311.434 309.618 324.085 317.164 333.498C314.491 338.645 313.271 344.337 313.617 350.04C313.963 355.744 315.865 361.272 319.145 366.109C322.424 370.946 326.973 374.932 332.368 377.695C337.762 380.458 343.824 381.907 349.987 381.907C356.15 381.907 362.212 380.458 367.606 377.695C373 374.932 377.55 370.946 380.829 366.109C384.109 361.272 386.011 355.744 386.357 350.04C386.703 344.337 385.483 338.645 382.81 333.498C390.356 324.085 394.986 311.434 394.986 297.512Z" fill="#FF7477"/>
<path opacity="0.2" d="M354.273 425.619H345.701L349.987 294.533L354.273 425.619Z" fill="#FF7477"/>
<path opacity="0.2" d="M351.058 327.296L378.914 316.382L351.058 330.284V327.296Z" fill="#FF7477"/>
<path opacity="0.2" d="M348.526 339.221L340.344 330.283L348.363 344.187L348.526 339.221Z" fill="#FF7477"/>
</g>
<g opacity="0.2">
<path opacity="0.2" d="M1049.05 216.452C1049.05 202.53 1044.42 189.879 1036.88 180.466C1039.55 175.319 1040.77 169.628 1040.42 163.924C1040.08 158.221 1038.17 152.692 1034.9 147.855C1031.62 143.019 1027.07 139.032 1021.67 136.269C1016.28 133.506 1010.22 132.057 1004.05 132.057C997.89 132.057 991.828 133.506 986.434 136.269C981.04 139.032 976.49 143.019 973.211 147.855C969.932 152.692 968.03 158.221 967.683 163.924C967.337 169.628 968.558 175.319 971.231 180.466C963.684 189.879 959.055 202.53 959.055 216.452C959.055 230.375 963.684 243.025 971.231 252.438C968.558 257.585 967.337 263.277 967.683 268.98C968.03 274.684 969.932 280.213 973.211 285.049C976.49 289.886 981.04 293.872 986.434 296.635C991.828 299.398 997.89 300.848 1004.05 300.848C1010.22 300.848 1016.28 299.398 1021.67 296.635C1027.07 293.872 1031.62 289.886 1034.9 285.049C1038.18 280.213 1040.08 274.684 1040.42 268.98C1040.77 263.277 1039.55 257.585 1036.88 252.438C1044.42 243.025 1049.05 230.375 1049.05 216.452Z" fill="#FF7477"/>
<path opacity="0.1" d="M1049.05 216.452C1049.05 202.53 1044.42 189.879 1036.88 180.466C1039.55 175.319 1040.77 169.628 1040.42 163.924C1040.08 158.221 1038.17 152.692 1034.9 147.855C1031.62 143.019 1027.07 139.032 1021.67 136.269C1016.28 133.506 1010.22 132.057 1004.05 132.057C997.89 132.057 991.828 133.506 986.434 136.269C981.04 139.032 976.49 143.019 973.211 147.855C969.932 152.692 968.03 158.221 967.683 163.924C967.337 169.628 968.558 175.319 971.231 180.466C963.684 189.879 959.055 202.53 959.055 216.452C959.055 230.375 963.684 243.025 971.231 252.438C968.558 257.585 967.337 263.277 967.683 268.98C968.03 274.684 969.932 280.213 973.211 285.049C976.49 289.886 981.04 293.872 986.434 296.635C991.828 299.398 997.89 300.848 1004.05 300.848C1010.22 300.848 1016.28 299.398 1021.67 296.635C1027.07 293.872 1031.62 289.886 1034.9 285.049C1038.18 280.213 1040.08 274.684 1040.42 268.98C1040.77 263.277 1039.55 257.585 1036.88 252.438C1044.42 243.025 1049.05 230.375 1049.05 216.452Z" fill="#FF7477"/>
<path opacity="0.2" d="M1051.2 216.452C1051.2 202.53 1046.57 189.879 1039.02 180.466C1041.69 175.319 1042.91 169.627 1042.57 163.924C1042.22 158.22 1040.32 152.692 1037.04 147.855C1033.76 143.018 1029.21 139.032 1023.82 136.269C1018.42 133.506 1012.36 132.057 1006.2 132.057C1000.03 132.057 993.971 133.506 988.577 136.269C983.183 139.032 978.633 143.018 975.354 147.855C972.075 152.692 970.173 158.22 969.826 163.924C969.48 169.627 970.701 175.319 973.374 180.466C965.827 189.879 961.198 202.53 961.198 216.452C961.198 230.374 965.827 243.025 973.374 252.438C970.701 257.585 969.48 263.277 969.826 268.98C970.173 274.684 972.075 280.212 975.354 285.049C978.633 289.886 983.183 293.872 988.577 296.635C993.971 299.398 1000.03 300.847 1006.2 300.847C1012.36 300.847 1018.42 299.398 1023.82 296.635C1029.21 293.872 1033.76 289.886 1037.04 285.049C1040.32 280.212 1042.22 274.684 1042.57 268.98C1042.91 263.277 1041.69 257.585 1039.02 252.438C1046.57 243.025 1051.2 230.374 1051.2 216.452Z" fill="#FF7477"/>
<path opacity="0.2" d="M1010.48 344.558H1001.91L1006.2 213.472L1010.48 344.558Z" fill="#FF7477"/>
<path opacity="0.2" d="M1007.27 246.234L1035.13 235.32L1007.27 249.222V246.234Z" fill="#FF7477"/>
<path opacity="0.2" d="M1004.74 258.161L996.554 249.223L1004.57 263.126L1004.74 258.161Z" fill="#FF7477"/>
</g>
<path d="M429.996 101.119C463.93 101.119 491.44 78.483 491.44 50.5597C491.44 22.6363 463.93 0 429.996 0C396.061 0 368.552 22.6363 368.552 50.5597C368.552 78.483 396.061 101.119 429.996 101.119Z" fill="#FFFFA5"/>
<g opacity="0.3">
<g opacity="0.3">
<path d="M1240.74 32.5439H1122.28C1114.35 32.5439 1107.92 40.6097 1107.92 50.5594V50.5595C1107.92 60.5091 1114.35 68.5749 1122.28 68.5749H1240.74C1248.67 68.5749 1255.1 60.5091 1255.1 50.5594C1255.1 40.6097 1248.67 32.5439 1240.74 32.5439Z" fill="#171717"/>
<path d="M1240.74 32.5439H1122.28C1114.35 32.5439 1107.92 40.6097 1107.92 50.5594V50.5595C1107.92 60.5091 1114.35 68.5749 1122.28 68.5749H1240.74C1248.67 68.5749 1255.1 60.5091 1255.1 50.5594C1255.1 40.6097 1248.67 32.5439 1240.74 32.5439Z" fill="#171717"/>
</g>
<g opacity="0.3">
<path d="M1204.84 68.5747H1086.38C1078.45 68.5747 1072.02 76.6405 1072.02 86.5902V86.5902C1072.02 96.5399 1078.45 104.606 1086.38 104.606H1204.84C1212.77 104.606 1219.2 96.5399 1219.2 86.5902C1219.2 76.6405 1212.77 68.5747 1204.84 68.5747Z" fill="#171717"/>
<path d="M1204.84 68.5747H1086.38C1078.45 68.5747 1072.02 76.6405 1072.02 86.5902V86.5902C1072.02 96.5399 1078.45 104.606 1086.38 104.606H1204.84C1212.77 104.606 1219.2 96.5399 1219.2 86.5902C1219.2 76.6405 1212.77 68.5747 1204.84 68.5747Z" fill="#171717"/>
</g>
<g opacity="0.3">
<path d="M1240.74 104.606H1122.28C1114.35 104.606 1107.92 112.672 1107.92 122.622V122.622C1107.92 132.571 1114.35 140.637 1122.28 140.637H1240.74C1248.67 140.637 1255.1 132.571 1255.1 122.622C1255.1 112.672 1248.67 104.606 1240.74 104.606Z" fill="#171717"/>
<path d="M1240.74 104.606H1122.28C1114.35 104.606 1107.92 112.672 1107.92 122.622V122.622C1107.92 132.571 1114.35 140.637 1122.28 140.637H1240.74C1248.67 140.637 1255.1 132.571 1255.1 122.622C1255.1 112.672 1248.67 104.606 1240.74 104.606Z" fill="#171717"/>
</g>
</g>
<g opacity="0.3">
<g opacity="0.3">
<path d="M195.141 16.5396H58.8291C49.7039 16.5396 42.3064 21.83 42.3064 28.3561V28.3562C42.3064 34.8823 49.7039 40.1728 58.8291 40.1728H195.141C204.266 40.1728 211.664 34.8823 211.664 28.3561C211.664 21.83 204.266 16.5396 195.141 16.5396Z" fill="#171717"/>
<path d="M195.141 16.5396H58.8291C49.7039 16.5396 42.3064 21.83 42.3064 28.3561V28.3562C42.3064 34.8823 49.7039 40.1728 58.8291 40.1728H195.141C204.266 40.1728 211.664 34.8823 211.664 28.3561C211.664 21.83 204.266 16.5396 195.141 16.5396Z" fill="#171717"/>
</g>
<g opacity="0.3">
<path d="M153.835 40.1729H17.5226C8.39743 40.1729 1 45.4633 1 51.9894V51.9895C1 58.5156 8.39743 63.8061 17.5226 63.8061H153.835C162.96 63.8061 170.357 58.5156 170.357 51.9894C170.357 45.4633 162.96 40.1729 153.835 40.1729Z" fill="#171717"/>
<path d="M153.835 40.1729H17.5226C8.39743 40.1729 1 45.4633 1 51.9894V51.9895C1 58.5156 8.39743 63.8061 17.5226 63.8061H153.835C162.96 63.8061 170.357 58.5156 170.357 51.9894C170.357 45.4633 162.96 40.1729 153.835 40.1729Z" fill="#171717"/>
</g>
<g opacity="0.3">
<path d="M195.141 63.8059H58.8291C49.7039 63.8059 42.3064 69.0964 42.3064 75.6225V75.6225C42.3064 82.1487 49.7039 87.4391 58.8291 87.4391H195.141C204.266 87.4391 211.664 82.1487 211.664 75.6225C211.664 69.0964 204.266 63.8059 195.141 63.8059Z" fill="#171717"/>
<path d="M195.141 63.8059H58.8291C49.7039 63.8059 42.3064 69.0964 42.3064 75.6225V75.6225C42.3064 82.1487 49.7039 87.4391 58.8291 87.4391H195.141C204.266 87.4391 211.664 82.1487 211.664 75.6225C211.664 69.0964 204.266 63.8059 195.141 63.8059Z" fill="#171717"/>
</g>
</g>
<g clip-path="url(#clip0)" filter="url(#filter0_d)">
<g opacity="0.7">
<path opacity="0.7" d="M777.713 485.133H337.045L340.096 278.964L466.123 258.126H644.298L774.662 272.885L777.713 485.133Z" fill="url(#paint0_linear)"/>
</g>
<path d="M771.612 482.534H343.147L346.198 281.563L466.527 260.726H646.467L768.561 275.484L771.612 482.534Z" fill="#F9F9F9"/>
<g opacity="0.7">
<path opacity="0.7" d="M507.399 184.335H475.246V247.715H507.399V184.335Z" fill="url(#paint1_linear)"/>
</g>
<g opacity="0.7">
<path opacity="0.7" d="M475.231 328.363V259.859H335.565L311.846 328.363V335.383H476.113V328.363H475.231Z" fill="url(#paint2_linear)"/>
</g>
<path d="M475.246 328.438H313.58L337.045 260.726H475.246V328.438Z" fill="#FF7477"/>
<path opacity="0.1" d="M475.246 328.438H313.58L337.045 260.726H475.246V328.438Z" fill="black"/>
<path d="M476.113 328.438H313.58V335.383H476.113V328.438Z" fill="#FF7477"/>
<g opacity="0.7">
<path opacity="0.7" d="M776.083 258.993H636.043V328.273H635.161V335.384H799.877V328.273L776.083 258.993Z" fill="url(#paint3_linear)"/>
</g>
<path d="M636.029 328.438H797.694L774.229 260.726H636.029V328.438Z" fill="#FF7477"/>
<path opacity="0.1" d="M636.029 328.438H797.694L774.229 260.726H636.029V328.438Z" fill="black"/>
<path d="M635.161 335.384H797.693V328.438H635.161V335.384Z" fill="#FF7477"/>
<path opacity="0.5" d="M444.827 362.734H357.04V417.421H444.827V362.734Z" fill="#FF7477"/>
<path opacity="0.1" d="M450.031 413.522H351.821V423.067H450.031V413.522Z" fill="black"/>
<path d="M450.031 412.656H351.821V422.201H450.031V412.656Z" fill="#535461"/>
<g opacity="0.1">
<path opacity="0.1" d="M444.827 362.734H357.04V384.438H444.827V362.734Z" fill="black"/>
</g>
<path opacity="0.5" d="M755.116 362.734H667.33V417.421H755.116V362.734Z" fill="#FF7477"/>
<path opacity="0.1" d="M760.321 413.522H662.11V423.067H760.321V413.522Z" fill="black"/>
<path d="M760.321 412.656H662.11V422.201H760.321V412.656Z" fill="#535461"/>
<g opacity="0.1">
<path opacity="0.1" d="M755.116 362.734H667.33V384.438H755.116V362.734Z" fill="black"/>
</g>
<g opacity="0.7">
<path opacity="0.7" d="M663.127 264.789L555.914 181.975L452.155 264.729L444.019 254.556L555.794 165.424L671.098 254.497L663.127 264.789Z" fill="url(#paint4_linear)"/>
</g>
<path opacity="0.1" d="M460.903 335.384H345.3V336.683H460.903V335.384Z" fill="black"/>
<path opacity="0.1" d="M769.458 335.384H652.554V336.683H769.458V335.384Z" fill="black"/>
<path d="M506.532 185.201H476.113V247.7H506.532V185.201Z" fill="#535461"/>
<g opacity="0.7">
<path opacity="0.7" d="M652.554 482.534H457.867V244.668L556.048 242.502L652.554 244.668V482.534Z" fill="url(#paint5_linear)"/>
</g>
<path d="M650.37 482.533H460.903V244.667L555.644 177.389L650.37 244.667V482.533Z" fill="white"/>
<path d="M579.528 402.662H531.731V482.534H579.528V402.662Z" fill="#535461"/>
<path opacity="0.1" d="M604.742 331.052H506.532V340.597H604.742V331.052Z" fill="black"/>
<path opacity="0.5" d="M599.538 280.264H511.751V334.95H599.538V280.264Z" fill="#FF7477"/>
<path d="M604.742 330.185H506.532V339.73H604.742V330.185Z" fill="#535461"/>
<g opacity="0.1">
<path opacity="0.1" d="M599.538 280.264H511.751V301.968H599.538V280.264Z" fill="black"/>
</g>
<path d="M663.127 265.655L555.914 182.841L452.155 265.595L444.019 255.423L555.794 166.29L671.098 255.363L663.127 265.655Z" fill="#FF7477"/>
<path d="M572.588 446.071C574.505 446.071 576.058 444.519 576.058 442.605C576.058 440.691 574.505 439.14 572.588 439.14C570.672 439.14 569.119 440.691 569.119 442.605C569.119 444.519 570.672 446.071 572.588 446.071Z" fill="#E0E0E0"/>
<g opacity="0.7">
<path opacity="0.7" d="M200.549 316.726H4.90601V487H200.549V316.726Z" fill="url(#paint6_linear)"/>
</g>
<path d="M198.485 318.624H8.25586V485.073H198.485V318.624Z" fill="#F9F9F9"/>
<g opacity="0.7">
<path opacity="0.7" d="M68.0018 266.432H44.4175V312.902H68.0018V266.432Z" fill="url(#paint7_linear)"/>
</g>
<path d="M67.3587 267.074H45.0605V312.902H67.3587V267.074Z" fill="#535461"/>
<g opacity="0.7">
<path opacity="0.7" d="M174.423 485.088H31.6758V310.677L103.67 309.078L174.423 310.677V485.088Z" fill="url(#paint8_linear)"/>
</g>
<path d="M172.837 485.088H33.9041V310.677L103.371 261.338L172.837 310.677V485.088Z" fill="white"/>
<path d="M120.898 426.518H85.8433V485.073H120.898V426.518Z" fill="#535461"/>
<path opacity="0.5" d="M135.554 336.773H71.1873V376.88H135.554V336.773Z" fill="#FF7477"/>
<path d="M139.368 373.37H67.3589V380.375H139.368V373.37Z" fill="#535461"/>
<g opacity="0.1">
<path opacity="0.1" d="M135.554 336.773H71.1873V352.681H135.554V336.773Z" fill="black"/>
</g>
<g opacity="0.7">
<path opacity="0.7" d="M182.17 325.435L103.565 264.714L27.4883 325.39L21.5212 317.921L103.475 252.57L188.017 317.877L182.17 325.435Z" fill="url(#paint9_linear)"/>
</g>
<path d="M182.17 326.062L103.565 265.341L27.4883 326.018L21.5212 318.564L103.475 253.197L188.017 318.519L182.17 326.062Z" fill="#FF7477"/>
<path d="M115.798 458.35C117.203 458.35 118.341 457.213 118.341 455.81C118.341 454.408 117.203 453.271 115.798 453.271C114.394 453.271 113.256 454.408 113.256 455.81C113.256 457.213 114.394 458.35 115.798 458.35Z" fill="#E0E0E0"/>
<g opacity="0.7">
<path opacity="0.7" d="M1285.77 485.625H923.227L925.724 215.45L1029.41 188.144H1176.01L1283.27 207.488L1285.77 485.625Z" fill="url(#paint10_linear)"/>
</g>
<path d="M1280.76 482.22H928.237L930.749 218.855L1029.75 191.564H1177.79L1278.25 210.894L1280.76 482.22Z" fill="#F9F9F9"/>
<g opacity="0.7">
<path opacity="0.7" d="M1063.37 71.7205H1036.92V123.868H1063.37V71.7205Z" fill="url(#paint11_linear)"/>
</g>
<g opacity="0.7">
<path opacity="0.7" d="M1036.92 232.359V176H922.001L902.484 232.359V238.14H1037.63V232.359H1036.92Z" fill="url(#paint12_linear)"/>
</g>
<path d="M1036.92 232.434H903.92L923.227 176.717H1036.92V232.434Z" fill="#FF7477"/>
<path opacity="0.1" d="M1036.92 232.434H903.92L923.227 176.717H1036.92V232.434Z" fill="black"/>
<path d="M1037.65 232.434H903.92V238.155H1037.65V232.434Z" fill="#FF7477"/>
<g opacity="0.7">
<path opacity="0.7" d="M1284.44 176.717H1169.22V233.718H1168.49V239.574H1304V233.718L1284.44 176.717Z" fill="url(#paint13_linear)"/>
</g>
<path d="M1169.21 233.853H1302.22L1282.91 178.151H1169.21V233.853Z" fill="#FF7477"/>
<path opacity="0.1" d="M1169.21 233.853H1302.22L1282.91 178.151H1169.21V233.853Z" fill="black"/>
<path d="M1168.49 239.574L1302.22 239.574V233.853L1168.49 233.853V239.574Z" fill="#FF7477"/>
<path opacity="0.5" d="M1011.88 384.917H939.663V429.908H1011.88V384.917Z" fill="#FF7477"/>
<path opacity="0.1" d="M1016.19 426.697H935.385V434.554H1016.19V426.697Z" fill="black"/>
<path d="M1016.19 425.995H935.385V433.852H1016.19V425.995Z" fill="#535461"/>
<g opacity="0.1">
<path opacity="0.1" d="M1011.88 384.917H939.663V402.767H1011.88V384.917Z" fill="black"/>
</g>
<path opacity="0.5" d="M1267.18 384.917H1194.96V429.908H1267.18V384.917Z" fill="#FF7477"/>
<path opacity="0.1" d="M1271.47 426.697H1190.67V434.554H1271.47V426.697Z" fill="black"/>
<path d="M1271.47 425.995H1190.67V433.852H1271.47V425.995Z" fill="#535461"/>
<g opacity="0.1">
<path opacity="0.1" d="M1267.18 384.917H1194.96V402.767H1267.18V384.917Z" fill="black"/>
</g>
<path opacity="0.5" d="M1267.18 279.92H1194.96V324.912H1267.18V279.92Z" fill="#FF7477"/>
<path opacity="0.1" d="M1271.47 321.716H1190.67V329.573H1271.47V321.716Z" fill="black"/>
<path d="M1271.47 320.999H1190.67V328.856H1271.47V320.999Z" fill="#535461"/>
<g opacity="0.1">
<path opacity="0.1" d="M1267.18 279.92H1194.96V297.771H1267.18V279.92Z" fill="black"/>
</g>
<path opacity="0.5" d="M1014.03 279.92H941.816V324.912H1014.03V279.92Z" fill="#FF7477"/>
<path opacity="0.1" d="M1018.33 321.716H937.524V329.573H1018.33V321.716Z" fill="black"/>
<path d="M1018.33 320.999H937.524V328.856H1018.33V320.999Z" fill="#535461"/>
<g opacity="0.1">
<path opacity="0.1" d="M1014.03 279.92H941.816V297.771H1014.03V279.92Z" fill="black"/>
</g>
<g opacity="0.7">
<path opacity="0.7" d="M1191.49 146.841L1103.3 78.7112L1017.92 146.797L1011.22 138.432L1103.2 65.0881L1198.06 138.372L1191.49 146.841Z" fill="url(#paint14_linear)"/>
</g>
<path opacity="0.1" d="M1025.12 238.14H930.017V239.215H1025.12V238.14Z" fill="black"/>
<path opacity="0.1" d="M1278.98 239.574H1182.8V240.649H1278.98V239.574Z" fill="black"/>
<path d="M1062.67 72.4375H1037.63V123.868H1062.67V72.4375Z" fill="#535461"/>
<g opacity="0.7">
<path opacity="0.7" d="M1183.16 483.489H1022.98V137.729L1103.77 134.578L1183.16 137.729V483.489Z" fill="url(#paint15_linear)"/>
</g>
<path d="M1181.01 483.49H1025.12V136.355L1103.06 77.8L1182.44 138.506L1181.01 483.49Z" fill="white"/>
<path d="M1122.73 417.779H1083.4V483.49H1122.73V417.779Z" fill="#535461"/>
<path opacity="0.1" d="M1143.47 358.85H1062.67V366.707H1143.47V358.85Z" fill="black"/>
<path opacity="0.5" d="M1139.18 317.07H1066.96V362.062H1139.18V317.07Z" fill="#FF7477"/>
<path d="M1143.47 358.133H1062.67V365.991H1143.47V358.133Z" fill="#535461"/>
<g opacity="0.1">
<path opacity="0.1" d="M1139.18 317.07H1066.96V334.92H1139.18V317.07Z" fill="black"/>
</g>
<path opacity="0.5" d="M1139.18 228.864H1066.96V273.856H1139.18V228.864Z" fill="#FF7477"/>
<path d="M1143.47 269.927H1062.67V277.784H1143.47V269.927Z" fill="#535461"/>
<g opacity="0.1">
<path opacity="0.1" d="M1139.18 228.864H1066.96V246.714H1139.18V228.864Z" fill="black"/>
</g>
<path opacity="0.5" d="M1139.18 140.642H1066.96V185.634H1139.18V140.642Z" fill="#FF7477"/>
<path d="M1143.47 181.721H1062.67V189.578H1143.47V181.721Z" fill="#535461"/>
<g opacity="0.1">
<path opacity="0.1" d="M1139.18 140.642H1066.96V158.493H1139.18V140.642Z" fill="black"/>
</g>
<path d="M1191.49 149.351L1103.3 81.2058L1017.92 149.291L1011.22 140.926L1103.2 67.5828L1198.06 140.866L1191.49 149.351Z" fill="#FF7477"/>
<path d="M1117.02 453.48C1118.59 453.48 1119.87 452.203 1119.87 450.627C1119.87 449.051 1118.59 447.774 1117.02 447.774C1115.44 447.774 1114.16 449.051 1114.16 450.627C1114.16 452.203 1115.44 453.48 1117.02 453.48Z" fill="#E0E0E0"/>
<path d="M172.212 377.252C167.223 372.365 164.443 365.912 164.436 359.204C164.465 354.576 165.794 350.035 168.294 346.021C170.794 342.008 174.38 338.659 178.703 336.302C176.769 333.715 175.731 330.65 175.725 327.509C175.725 318.664 183.78 311.495 193.72 311.495C197.559 311.459 201.309 312.56 204.417 314.636C207.525 316.712 209.827 319.652 210.983 323.025C213.436 319.469 216.83 316.545 220.846 314.529C224.862 312.512 229.368 311.468 233.942 311.495C248.749 311.495 260.756 322.181 260.756 335.358C260.758 338.172 260.202 340.964 259.114 343.594C259.655 343.559 260.202 343.518 260.756 343.518C272.642 343.518 282.276 352.093 282.276 362.674C282.277 363.32 282.24 363.965 282.168 364.608C291.675 368.254 298.331 376.666 298.331 386.461C298.331 399.597 286.368 410.248 271.605 410.248C270.055 410.246 268.508 410.124 266.979 409.884C267.056 410.676 267.107 411.479 267.107 412.288C267.107 427.03 253.68 438.982 237.117 438.982C231.037 438.999 225.09 437.343 220.038 434.228C215.95 437.316 210.823 438.996 205.536 438.982C193.16 438.982 183.131 430.055 183.131 419.052C183.131 418.577 183.176 418.108 183.214 417.639H183.131C169.883 417.639 159.142 408.079 159.142 396.285C159.17 392.304 160.409 388.41 162.719 385.045C165.03 381.68 168.319 378.98 172.212 377.252V377.252Z" fill="url(#paint16_linear)"/>
<path d="M174.636 377.164C169.865 372.486 167.205 366.309 167.198 359.889C167.225 355.46 168.497 351.113 170.89 347.271C173.283 343.429 176.716 340.223 180.853 337.966C178.998 335.485 178.004 332.544 178.003 329.531C178.003 321.067 185.715 314.203 195.228 314.203C198.904 314.169 202.495 315.223 205.473 317.208C208.451 319.194 210.659 322.007 211.772 325.235C214.118 321.839 217.361 319.046 221.197 317.118C225.032 315.19 229.336 314.189 233.706 314.209C247.883 314.209 259.369 324.438 259.369 337.07C259.371 339.764 258.838 342.436 257.797 344.954C258.319 344.919 258.841 344.883 259.369 344.883C270.746 344.883 279.966 353.09 279.966 363.219C279.965 363.838 279.929 364.456 279.858 365.071C288.958 368.588 295.327 376.613 295.327 385.986C295.327 398.559 283.874 408.753 269.747 408.753C268.255 408.753 266.765 408.637 265.293 408.407C265.369 409.163 265.414 409.931 265.414 410.705C265.414 424.814 252.56 436.251 236.709 436.251C230.891 436.265 225.2 434.681 220.362 431.702C216.465 434.65 211.578 436.262 206.535 436.262C194.693 436.262 185.091 427.716 185.091 417.176C185.091 416.719 185.129 416.274 185.168 415.822H185.091C172.409 415.822 162.126 406.672 162.126 395.382C162.153 391.572 163.339 387.844 165.551 384.624C167.762 381.403 170.91 378.819 174.636 377.164V377.164Z" fill="#2EC4B6"/>
<path d="M225.612 350.44H220.967V492.429H225.612V350.44Z" fill="#795548"/>
<path d="M250.959 394.985L222.426 413.431L225.094 416.933L253.627 398.488L250.959 394.985Z" fill="#795548"/>
<path d="M885.645 273.94C891.284 267.961 895.473 260.93 897.928 253.321C900.384 245.713 901.048 237.704 899.877 229.837C898.706 221.97 895.727 214.427 891.141 207.719C886.555 201.011 880.468 195.293 873.293 190.953C877.004 185.63 878.973 179.426 878.961 173.088C878.961 155.166 863.638 140.637 844.728 140.637C837.256 140.688 830.005 142.997 824.076 147.213C818.147 151.429 813.864 157.323 811.875 163.999C807.421 156.916 801.048 151.035 793.387 146.937C785.727 142.84 777.044 140.668 768.2 140.637C740.023 140.637 717.176 162.291 717.176 189C717.169 194.689 718.226 200.336 720.299 205.691C719.27 205.621 718.23 205.54 717.176 205.54C694.605 205.54 676.222 222.974 676.222 244.36C676.222 245.685 676.298 246.987 676.435 248.277C667.23 252.102 659.422 258.323 653.962 266.185C648.501 274.047 645.622 283.21 645.676 292.56C645.676 319.188 668.448 340.772 696.524 340.772C699.467 340.768 702.405 340.523 705.301 340.04C705.151 341.644 705.063 343.271 705.063 344.91C705.063 374.781 730.606 399.003 762.131 399.003C773.779 399.006 785.138 395.638 794.62 389.367C802.252 395.572 812.056 398.996 822.207 399.003C845.757 399.003 864.842 380.906 864.842 358.59C864.842 357.625 864.754 356.672 864.691 355.719H864.842C890.059 355.719 910.486 336.344 910.486 312.447C910.525 304.54 908.232 296.772 903.853 289.986C899.475 283.199 893.179 277.65 885.645 273.94V273.94Z" fill="url(#paint17_linear)"/>
<path d="M879.049 273.684C884.338 268.072 888.266 261.474 890.568 254.334C892.87 247.194 893.492 239.68 892.392 232.298C891.293 224.916 888.497 217.839 884.194 211.545C879.891 205.25 874.181 199.885 867.45 195.811C870.932 190.813 872.779 184.988 872.767 179.039C872.767 162.209 858.384 148.575 840.628 148.575C833.624 148.634 826.831 150.805 821.277 154.76C815.723 158.715 811.709 164.239 809.843 170.496C805.663 163.846 799.68 158.323 792.488 154.476C785.295 150.629 777.143 148.591 768.839 148.564C742.393 148.564 720.951 168.892 720.951 193.963C720.945 199.303 721.938 204.604 723.885 209.631C722.919 209.561 721.941 209.491 720.951 209.491C699.721 209.491 682.517 225.763 682.517 245.929C682.517 247.173 682.58 248.393 682.718 249.602C674.085 253.201 666.765 259.045 661.646 266.425C656.526 273.805 653.827 282.403 653.877 291.177C653.877 316.166 675.194 336.425 701.615 336.425C704.386 336.423 707.151 336.193 709.878 335.739C709.74 337.25 709.652 338.773 709.652 340.307C709.652 368.353 733.628 391.076 763.209 391.076C774.142 391.08 784.804 387.918 793.705 382.033C800.869 387.857 810.071 391.07 819.599 391.076C841.694 391.076 859.613 374.095 859.613 353.139C859.613 352.232 859.537 351.337 859.475 350.442H859.613C883.275 350.442 902.46 332.252 902.46 309.82C902.491 302.389 900.325 295.093 896.197 288.722C892.07 282.352 886.14 277.151 879.049 273.684V273.684Z" fill="#2EC4B6"/>
<path d="M791.912 219.765H785.655V502.562H791.912V219.765Z" fill="#795548"/>
<path d="M836.423 251.641L785.065 303.049L789.657 306.989L841.014 255.582L836.423 251.641Z" fill="#795548"/>
</g>
<g opacity="0.3">
<g opacity="0.3">
<path d="M703.799 37.1934H608.402C602.015 37.1934 596.838 41.992 596.838 47.9114V47.9114C596.838 53.8308 602.015 58.6295 608.402 58.6295H703.799C710.185 58.6295 715.362 53.8308 715.362 47.9114C715.362 41.992 710.185 37.1934 703.799 37.1934Z" fill="#171717"/>
<path d="M703.799 37.1934H608.402C602.015 37.1934 596.838 41.992 596.838 47.9114V47.9114C596.838 53.8308 602.015 58.6295 608.402 58.6295H703.799C710.185 58.6295 715.362 53.8308 715.362 47.9114C715.362 41.992 710.185 37.1934 703.799 37.1934Z" fill="#171717"/>
</g>
<g opacity="0.3">
<path d="M674.89 58.6294H579.493C573.107 58.6294 567.93 63.428 567.93 69.3474V69.3475C567.93 75.2669 573.107 80.0655 579.493 80.0655H674.89C681.276 80.0655 686.453 75.2669 686.453 69.3474C686.453 63.428 681.276 58.6294 674.89 58.6294Z" fill="#171717"/>
<path d="M674.89 58.6294H579.493C573.107 58.6294 567.93 63.428 567.93 69.3474V69.3475C567.93 75.2669 573.107 80.0655 579.493 80.0655H674.89C681.276 80.0655 686.453 75.2669 686.453 69.3474C686.453 63.428 681.276 58.6294 674.89 58.6294Z" fill="#171717"/>
</g>
<g opacity="0.3">
<path d="M703.799 80.0657H608.402C602.015 80.0657 596.838 84.8643 596.838 90.7837V90.7837C596.838 96.7032 602.015 101.502 608.402 101.502H703.799C710.185 101.502 715.362 96.7032 715.362 90.7837C715.362 84.8643 710.185 80.0657 703.799 80.0657Z" fill="#171717"/>
<path d="M703.799 80.0657H608.402C602.015 80.0657 596.838 84.8643 596.838 90.7837V90.7837C596.838 96.7032 602.015 101.502 608.402 101.502H703.799C710.185 101.502 715.362 96.7032 715.362 90.7837C715.362 84.8643 710.185 80.0657 703.799 80.0657Z" fill="#171717"/>
</g>
</g>
<defs>
<filter id="filter0_d" x="0.906006" y="65.0881" width="1307.09" height="429.912" filterUnits="userSpaceOnUse" color-interpolation-filters="sRGB">
<feFlood flood-opacity="0" result="BackgroundImageFix"/>
<feColorMatrix in="SourceAlpha" type="matrix" values="0 0 0 0 0 0 0 0 0 0 0 0 0 0 0 0 0 0 127 0"/>
<feOffset dy="4"/>
<feGaussianBlur stdDeviation="2"/>
<feColorMatrix type="matrix" values="0 0 0 0 0 0 0 0 0 0 0 0 0 0 0 0 0 0 0.25 0"/>
<feBlend mode="normal" in2="BackgroundImageFix" result="effect1_dropShadow"/>
<feBlend mode="normal" in="SourceGraphic" in2="effect1_dropShadow" result="shape"/>
</filter>
<linearGradient id="paint0_linear" x1="557.379" y1="485.133" x2="557.379" y2="258.126" gradientUnits="userSpaceOnUse">
<stop stop-color="#808080" stop-opacity="0.25"/>
<stop offset="0.54" stop-color="#808080" stop-opacity="0.12"/>
<stop offset="1" stop-color="#808080" stop-opacity="0.1"/>
</linearGradient>
<linearGradient id="paint1_linear" x1="10933.2" y1="7932.55" x2="10933.2" y2="5243.97" gradientUnits="userSpaceOnUse">
<stop stop-color="#808080" stop-opacity="0.25"/>
<stop offset="0.54" stop-color="#808080" stop-opacity="0.12"/>
<stop offset="1" stop-color="#808080" stop-opacity="0.1"/>
</linearGradient>
<linearGradient id="paint2_linear" x1="43047.6" y1="13926" x2="43047.6" y2="10107.5" gradientUnits="userSpaceOnUse">
<stop stop-color="#808080" stop-opacity="0.25"/>
<stop offset="0.54" stop-color="#808080" stop-opacity="0.12"/>
<stop offset="1" stop-color="#808080" stop-opacity="0.1"/>
</linearGradient>
<linearGradient id="paint3_linear" x1="79122.3" y1="14081.9" x2="79122.3" y2="10175.3" gradientUnits="userSpaceOnUse">
<stop stop-color="#808080" stop-opacity="0.25"/>
<stop offset="0.54" stop-color="#808080" stop-opacity="0.12"/>
<stop offset="1" stop-color="#808080" stop-opacity="0.1"/>
</linearGradient>
<linearGradient id="paint4_linear" x1="84358.8" y1="13449.5" x2="84358.8" y2="6839.75" gradientUnits="userSpaceOnUse">
<stop stop-color="#808080" stop-opacity="0.25"/>
<stop offset="0.54" stop-color="#808080" stop-opacity="0.12"/>
<stop offset="1" stop-color="#808080" stop-opacity="0.1"/>
</linearGradient>
<linearGradient id="paint5_linear" x1="72096.5" y1="67321.8" x2="72096.5" y2="28751.1" gradientUnits="userSpaceOnUse">
<stop stop-color="#808080" stop-opacity="0.25"/>
<stop offset="0.54" stop-color="#808080" stop-opacity="0.12"/>
<stop offset="1" stop-color="#808080" stop-opacity="0.1"/>
</linearGradient>
<linearGradient id="paint6_linear" x1="12801.9" y1="48410.5" x2="12801.9" y2="29001" gradientUnits="userSpaceOnUse">
<stop stop-color="#808080" stop-opacity="0.25"/>
<stop offset="0.54" stop-color="#808080" stop-opacity="0.12"/>
<stop offset="1" stop-color="#808080" stop-opacity="0.1"/>
</linearGradient>
<linearGradient id="paint7_linear" x1="853.358" y1="7975.93" x2="853.358" y2="6530.23" gradientUnits="userSpaceOnUse">
<stop stop-color="#808080" stop-opacity="0.25"/>
<stop offset="0.54" stop-color="#808080" stop-opacity="0.12"/>
<stop offset="1" stop-color="#808080" stop-opacity="0.1"/>
</linearGradient>
<linearGradient id="paint8_linear" x1="9398.73" y1="49797.7" x2="9398.73" y2="29058.5" gradientUnits="userSpaceOnUse">
<stop stop-color="#808080" stop-opacity="0.25"/>
<stop offset="0.54" stop-color="#808080" stop-opacity="0.12"/>
<stop offset="1" stop-color="#808080" stop-opacity="0.1"/>
</linearGradient>
<linearGradient id="paint9_linear" x1="11140.1" y1="12952.3" x2="11140.1" y2="9397.91" gradientUnits="userSpaceOnUse">
<stop stop-color="#808080" stop-opacity="0.25"/>
<stop offset="0.54" stop-color="#808080" stop-opacity="0.12"/>
<stop offset="1" stop-color="#808080" stop-opacity="0.1"/>
</linearGradient>
<linearGradient id="paint10_linear" x1="267486" y1="83938.2" x2="267486" y2="24694.7" gradientUnits="userSpaceOnUse">
<stop stop-color="#808080" stop-opacity="0.25"/>
<stop offset="0.54" stop-color="#808080" stop-opacity="0.12"/>
<stop offset="1" stop-color="#808080" stop-opacity="0.1"/>
</linearGradient>
<linearGradient id="paint11_linear" x1="19527.2" y1="2123.71" x2="19527.2" y2="303.253" gradientUnits="userSpaceOnUse">
<stop stop-color="#808080" stop-opacity="0.25"/>
<stop offset="0.54" stop-color="#808080" stop-opacity="0.12"/>
<stop offset="1" stop-color="#808080" stop-opacity="0.1"/>
</linearGradient>
<linearGradient id="paint12_linear" x1="88123.9" y1="7374.95" x2="88123.9" y2="4789.92" gradientUnits="userSpaceOnUse">
<stop stop-color="#808080" stop-opacity="0.25"/>
<stop offset="0.54" stop-color="#808080" stop-opacity="0.12"/>
<stop offset="1" stop-color="#808080" stop-opacity="0.1"/>
</linearGradient>
<linearGradient id="paint13_linear" x1="112741" y1="7519.08" x2="112741" y2="4874.04" gradientUnits="userSpaceOnUse">
<stop stop-color="#808080" stop-opacity="0.25"/>
<stop offset="0.54" stop-color="#808080" stop-opacity="0.12"/>
<stop offset="1" stop-color="#808080" stop-opacity="0.1"/>
</linearGradient>
<linearGradient id="paint14_linear" x1="138402" y1="4539.45" x2="138402" y2="65.0881" gradientUnits="userSpaceOnUse">
<stop stop-color="#808080" stop-opacity="0.25"/>
<stop offset="0.54" stop-color="#808080" stop-opacity="0.12"/>
<stop offset="1" stop-color="#808080" stop-opacity="0.1"/>
</linearGradient>
<linearGradient id="paint15_linear" x1="118647" y1="97864.8" x2="118647" y2="16366" gradientUnits="userSpaceOnUse">
<stop stop-color="#808080" stop-opacity="0.25"/>
<stop offset="0.54" stop-color="#808080" stop-opacity="0.12"/>
<stop offset="1" stop-color="#808080" stop-opacity="0.1"/>
</linearGradient>
<linearGradient id="paint16_linear" x1="228.743" y1="438.964" x2="228.743" y2="311.471" gradientUnits="userSpaceOnUse">
<stop stop-color="#808080" stop-opacity="0.25"/>
<stop offset="0.54" stop-color="#808080" stop-opacity="0.12"/>
<stop offset="1" stop-color="#808080" stop-opacity="0.1"/>
</linearGradient>
<linearGradient id="paint17_linear" x1="242598" y1="162960" x2="242598" y2="105525" gradientUnits="userSpaceOnUse">
<stop stop-color="#808080" stop-opacity="0.25"/>
<stop offset="0.54" stop-color="#808080" stop-opacity="0.12"/>
<stop offset="1" stop-color="#808080" stop-opacity="0.1"/>
</linearGradient>
<clipPath id="clip0">
<rect width="1299.09" height="421.912" fill="white" transform="translate(4.90601 65.0881)"/>
</clipPath>
</defs>
</svg>
