<svg width="322" height="145" viewBox="0 0 322 145" fill="none" xmlns="http://www.w3.org/2000/svg">
<g opacity="0.2">
<path opacity="0.2" d="M74.0591 64.114C74.0591 58.0544 72.333 52.5482 69.5193 48.4513C70.516 46.211 70.9711 43.7337 70.8419 41.2512C70.7128 38.7688 70.0037 36.3625 68.781 34.2573C67.5583 32.1522 65.862 30.4171 63.8508 29.2145C61.8396 28.0119 59.5794 27.3811 57.2815 27.3811C54.9837 27.3811 52.7234 28.0119 50.7122 29.2145C48.701 30.4171 47.0047 32.1522 45.782 34.2573C44.5593 36.3625 43.8502 38.7688 43.7211 41.2512C43.592 43.7337 44.047 46.211 45.0437 48.4513C42.23 52.5482 40.5039 58.0544 40.5039 64.114C40.5039 70.1736 42.23 75.6798 45.0437 79.7768C44.047 82.0171 43.592 84.4944 43.7211 86.9768C43.8502 89.4592 44.5593 91.8656 45.782 93.9707C47.0047 96.0758 48.701 97.8109 50.7122 99.0135C52.7234 100.216 54.9837 100.847 57.2815 100.847C59.5794 100.847 61.8396 100.216 63.8508 99.0135C65.862 97.8109 67.5583 96.0758 68.781 93.9707C70.0037 91.8656 70.7128 89.4592 70.8419 86.9768C70.9711 84.4944 70.516 82.0171 69.5193 79.7768C72.333 75.6798 74.0591 70.1737 74.0591 64.114Z" fill="#FF7477"/>
<path opacity="0.1" d="M74.0591 64.114C74.0591 58.0544 72.333 52.5482 69.5193 48.4513C70.516 46.211 70.9711 43.7337 70.8419 41.2512C70.7128 38.7688 70.0037 36.3625 68.781 34.2573C67.5583 32.1522 65.862 30.4171 63.8508 29.2145C61.8396 28.0119 59.5794 27.3811 57.2815 27.3811C54.9837 27.3811 52.7234 28.0119 50.7122 29.2145C48.701 30.4171 47.0047 32.1522 45.782 34.2573C44.5593 36.3625 43.8502 38.7688 43.7211 41.2512C43.592 43.7337 44.047 46.211 45.0437 48.4513C42.23 52.5482 40.5039 58.0544 40.5039 64.114C40.5039 70.1736 42.23 75.6798 45.0437 79.7768C44.047 82.0171 43.592 84.4944 43.7211 86.9768C43.8502 89.4592 44.5593 91.8656 45.782 93.9707C47.0047 96.0758 48.701 97.8109 50.7122 99.0135C52.7234 100.216 54.9837 100.847 57.2815 100.847C59.5794 100.847 61.8396 100.216 63.8508 99.0135C65.862 97.8109 67.5583 96.0758 68.781 93.9707C70.0037 91.8656 70.7128 89.4592 70.8419 86.9768C70.9711 84.4944 70.516 82.0171 69.5193 79.7768C72.333 75.6798 74.0591 70.1737 74.0591 64.114Z" fill="#FF7477"/>
<path opacity="0.2" d="M74.858 64.114C74.858 58.0543 73.1318 52.5482 70.3182 48.4512C71.3148 46.2109 71.7699 43.7337 71.6407 41.2512C71.5116 38.7688 70.8025 36.3624 69.5798 34.2573C68.3571 32.1522 66.6608 30.4171 64.6496 29.2145C62.6385 28.0119 60.3782 27.3811 58.0803 27.3811C55.7825 27.3811 53.5222 28.0119 51.511 29.2145C49.4999 30.4171 47.8036 32.1522 46.5809 34.2573C45.3582 36.3624 44.6491 38.7688 44.5199 41.2512C44.3908 43.7337 44.8459 46.2109 45.8425 48.4512C43.0288 52.5482 41.3027 58.0543 41.3027 64.114C41.3027 70.1736 43.0288 75.6798 45.8425 79.7767C44.8459 82.017 44.3908 84.4943 44.5199 86.9767C44.6491 89.4591 45.3582 91.8655 46.5809 93.9707C47.8036 96.0758 49.4999 97.8109 51.511 99.0135C53.5222 100.216 55.7825 100.847 58.0803 100.847C60.3782 100.847 62.6385 100.216 64.6496 99.0135C66.6608 97.8109 68.3571 96.0758 69.5798 93.9707C70.8025 91.8655 71.5116 89.4591 71.6407 86.9767C71.7699 84.4943 71.3148 82.017 70.3182 79.7767C73.1318 75.6798 74.858 70.1736 74.858 64.114Z" fill="#FF7477"/>
<path opacity="0.2" d="M59.678 119.873H56.4824L58.0803 62.8174L59.678 119.873Z" fill="#FF7477"/>
<path opacity="0.2" d="M58.4795 77.0766L68.8657 72.3264L58.4795 78.3776V77.0766Z" fill="#FF7477"/>
<path opacity="0.2" d="M57.5359 82.2677L54.4854 78.3774L57.4754 84.429L57.5359 82.2677Z" fill="#FF7477"/>
</g>
<g opacity="0.2">
<path opacity="0.2" d="M232.194 41.3105C232.194 35.2509 230.468 29.7447 227.654 25.6478C228.651 23.4075 229.106 20.9302 228.977 18.4478C228.848 15.9654 228.138 13.559 226.916 11.4538C225.693 9.34871 223.997 7.61366 221.986 6.41106C219.974 5.20846 217.714 4.57764 215.416 4.57764C213.118 4.57764 210.858 5.20846 208.847 6.41106C206.836 7.61366 205.139 9.34871 203.917 11.4538C202.694 13.559 201.985 15.9654 201.856 18.4478C201.727 20.9302 202.182 23.4075 203.178 25.6478C200.365 29.7447 198.639 35.2509 198.639 41.3105C198.639 47.3702 200.365 52.8763 203.178 56.9733C202.182 59.2136 201.727 61.6909 201.856 64.1733C201.985 66.6557 202.694 69.0621 203.917 71.1672C205.139 73.2724 206.836 75.0074 208.847 76.21C210.858 77.4126 213.118 78.0434 215.416 78.0434C217.714 78.0434 219.974 77.4126 221.986 76.21C223.997 75.0074 225.693 73.2724 226.916 71.1672C228.138 69.0621 228.848 66.6557 228.977 64.1733C229.106 61.6909 228.651 59.2136 227.654 56.9733C230.468 52.8763 232.194 47.3702 232.194 41.3105Z" fill="#FF7477"/>
<path opacity="0.1" d="M232.194 41.3105C232.194 35.2509 230.468 29.7447 227.654 25.6478C228.651 23.4075 229.106 20.9302 228.977 18.4478C228.848 15.9654 228.138 13.559 226.916 11.4538C225.693 9.34871 223.997 7.61366 221.986 6.41106C219.974 5.20846 217.714 4.57764 215.416 4.57764C213.118 4.57764 210.858 5.20846 208.847 6.41106C206.836 7.61366 205.139 9.34871 203.917 11.4538C202.694 13.559 201.985 15.9654 201.856 18.4478C201.727 20.9302 202.182 23.4075 203.178 25.6478C200.365 29.7447 198.639 35.2509 198.639 41.3105C198.639 47.3702 200.365 52.8763 203.178 56.9733C202.182 59.2136 201.727 61.6909 201.856 64.1733C201.985 66.6557 202.694 69.0621 203.917 71.1672C205.139 73.2724 206.836 75.0074 208.847 76.21C210.858 77.4126 213.118 78.0434 215.416 78.0434C217.714 78.0434 219.974 77.4126 221.986 76.21C223.997 75.0074 225.693 73.2724 226.916 71.1672C228.138 69.0621 228.848 66.6557 228.977 64.1733C229.106 61.6909 228.651 59.2136 227.654 56.9733C230.468 52.8763 232.194 47.3702 232.194 41.3105Z" fill="#FF7477"/>
<path opacity="0.2" d="M232.993 41.3105C232.993 35.2509 231.267 29.7447 228.453 25.6478C229.45 23.4075 229.905 20.9302 229.776 18.4478C229.646 15.9654 228.937 13.559 227.715 11.4538C226.492 9.34871 224.796 7.61366 222.784 6.41106C220.773 5.20846 218.513 4.57764 216.215 4.57764C213.917 4.57764 211.657 5.20846 209.646 6.41106C207.635 7.61366 205.938 9.34871 204.716 11.4538C203.493 13.559 202.784 15.9654 202.655 18.4478C202.526 20.9302 202.981 23.4075 203.977 25.6478C201.164 29.7447 199.438 35.2509 199.438 41.3105C199.438 47.3702 201.164 52.8763 203.977 56.9733C202.981 59.2136 202.526 61.6908 202.655 64.1733C202.784 66.6557 203.493 69.0621 204.716 71.1672C205.938 73.2723 207.635 75.0074 209.646 76.21C211.657 77.4126 213.917 78.0434 216.215 78.0434C218.513 78.0434 220.773 77.4126 222.784 76.21C224.796 75.0074 226.492 73.2723 227.715 71.1672C228.937 69.0621 229.646 66.6557 229.776 64.1733C229.905 61.6908 229.45 59.2136 228.453 56.9733C231.267 52.8763 232.993 47.3702 232.993 41.3105Z" fill="#FF7477"/>
<path opacity="0.2" d="M217.813 97.0688H214.617L216.215 40.0134L217.813 97.0688Z" fill="#FF7477"/>
<path opacity="0.2" d="M216.615 54.2732L227.001 49.5229L216.615 55.5742V54.2732Z" fill="#FF7477"/>
<path opacity="0.2" d="M215.671 59.4643L212.62 55.574L215.61 61.6255L215.671 59.4643Z" fill="#FF7477"/>
</g>
<g opacity="0.2">
<path opacity="0.2" d="M98.427 83.695C98.427 79.7784 97.3114 76.2196 95.4928 73.5717C96.137 72.1237 96.4311 70.5225 96.3476 68.9181C96.2642 67.3136 95.8058 65.7583 95.0156 64.3977C94.2253 63.0371 93.1289 61.9156 91.8291 61.1384C90.5292 60.3611 89.0683 59.9534 87.5831 59.9534C86.098 59.9534 84.6371 60.3611 83.3372 61.1384C82.0373 61.9156 80.9409 63.0371 80.1507 64.3977C79.3604 65.7583 78.9021 67.3136 78.8186 68.9181C78.7352 70.5225 79.0293 72.1237 79.6734 73.5717C77.8549 76.2196 76.7393 79.7784 76.7393 83.695C76.7393 87.6115 77.8549 91.1703 79.6734 93.8183C79.0293 95.2663 78.7352 96.8674 78.8186 98.4719C78.9021 100.076 79.3604 101.632 80.1507 102.992C80.9409 104.353 82.0373 105.474 83.3372 106.252C84.6371 107.029 86.098 107.437 87.5831 107.437C89.0683 107.437 90.5292 107.029 91.8291 106.252C93.1289 105.474 94.2253 104.353 95.0156 102.992C95.8059 101.632 96.2642 100.076 96.3476 98.4719C96.4311 96.8674 96.137 95.2663 95.4928 93.8183C97.3114 91.1703 98.427 87.6115 98.427 83.695Z" fill="#FF7477"/>
<path opacity="0.1" d="M98.427 83.695C98.427 79.7784 97.3114 76.2196 95.4928 73.5717C96.137 72.1237 96.4311 70.5225 96.3476 68.9181C96.2642 67.3136 95.8058 65.7583 95.0156 64.3977C94.2253 63.0371 93.1289 61.9156 91.8291 61.1384C90.5292 60.3611 89.0683 59.9534 87.5831 59.9534C86.098 59.9534 84.6371 60.3611 83.3372 61.1384C82.0373 61.9156 80.9409 63.0371 80.1507 64.3977C79.3604 65.7583 78.9021 67.3136 78.8186 68.9181C78.7352 70.5225 79.0293 72.1237 79.6734 73.5717C77.8549 76.2196 76.7393 79.7784 76.7393 83.695C76.7393 87.6115 77.8549 91.1703 79.6734 93.8183C79.0293 95.2663 78.7352 96.8674 78.8186 98.4719C78.9021 100.076 79.3604 101.632 80.1507 102.992C80.9409 104.353 82.0373 105.474 83.3372 106.252C84.6371 107.029 86.098 107.437 87.5831 107.437C89.0683 107.437 90.5292 107.029 91.8291 106.252C93.1289 105.474 94.2253 104.353 95.0156 102.992C95.8059 101.632 96.2642 100.076 96.3476 98.4719C96.4311 96.8674 96.137 95.2663 95.4928 93.8183C97.3114 91.1703 98.427 87.6115 98.427 83.695Z" fill="#FF7477"/>
<path opacity="0.2" d="M98.9436 83.6945C98.9436 79.7779 97.828 76.2192 96.0094 73.5712C96.6536 72.1232 96.9477 70.522 96.8642 68.9176C96.7808 67.3131 96.3225 65.7578 95.5322 64.3972C94.7419 63.0366 93.6456 61.9152 92.3457 61.1379C91.0458 60.3606 89.5849 59.9529 88.0997 59.9529C86.6146 59.9529 85.1537 60.3606 83.8538 61.1379C82.5539 61.9152 81.4575 63.0366 80.6673 64.3972C79.877 65.7578 79.4187 67.3131 79.3352 68.9176C79.2518 70.522 79.5459 72.1232 80.1901 73.5712C78.3715 76.2192 77.2559 79.7779 77.2559 83.6945C77.2559 87.611 78.3715 91.1698 80.1901 93.8178C79.5459 95.2658 79.2518 96.8669 79.3352 98.4714C79.4187 100.076 79.877 101.631 80.6673 102.992C81.4575 104.352 82.5539 105.474 83.8538 106.251C85.1537 107.028 86.6146 107.436 88.0997 107.436C89.5849 107.436 91.0458 107.028 92.3457 106.251C93.6456 105.474 94.7419 104.352 95.5322 102.992C96.3225 101.631 96.7808 100.076 96.8642 98.4714C96.9477 96.8669 96.6536 95.2658 96.0094 93.8178C97.828 91.1698 98.9436 87.611 98.9436 83.6945Z" fill="#FF7477"/>
<path opacity="0.2" d="M89.1321 119.733H87.0664L88.0993 82.8562L89.1321 119.733Z" fill="#FF7477"/>
<path opacity="0.2" d="M88.3574 92.0729L95.0704 89.0027L88.3574 92.9136V92.0729Z" fill="#FF7477"/>
<path opacity="0.2" d="M87.7476 95.4275L85.7759 92.9131L87.7083 96.8243L87.7476 95.4275Z" fill="#FF7477"/>
</g>
<g opacity="0.2">
<path opacity="0.2" d="M256.562 60.8915C256.562 56.975 255.446 53.4162 253.628 50.7682C254.272 49.3202 254.566 47.7191 254.482 46.1146C254.399 44.5101 253.941 42.9548 253.15 41.5942C252.36 40.2336 251.264 39.1122 249.964 38.3349C248.664 37.5576 247.203 37.1499 245.718 37.1499C244.233 37.1499 242.772 37.5576 241.472 38.3349C240.172 39.1122 239.076 40.2336 238.285 41.5942C237.495 42.9548 237.037 44.5101 236.953 46.1146C236.87 47.7191 237.164 49.3202 237.808 50.7682C235.99 53.4162 234.874 56.975 234.874 60.8915C234.874 64.808 235.99 68.3668 237.808 71.0148C237.164 72.4628 236.87 74.0639 236.953 75.6684C237.037 77.2728 237.495 78.8282 238.285 80.1888C239.076 81.5494 240.172 82.6708 241.472 83.4481C242.772 84.2254 244.233 84.6331 245.718 84.6331C247.203 84.6331 248.664 84.2254 249.964 83.4481C251.264 82.6708 252.36 81.5494 253.15 80.1888C253.941 78.8282 254.399 77.2728 254.482 75.6684C254.566 74.0639 254.272 72.4628 253.628 71.0148C255.446 68.3668 256.562 64.808 256.562 60.8915Z" fill="#FF7477"/>
<path opacity="0.1" d="M256.562 60.8915C256.562 56.975 255.446 53.4162 253.628 50.7682C254.272 49.3202 254.566 47.7191 254.482 46.1146C254.399 44.5101 253.941 42.9548 253.15 41.5942C252.36 40.2336 251.264 39.1122 249.964 38.3349C248.664 37.5576 247.203 37.1499 245.718 37.1499C244.233 37.1499 242.772 37.5576 241.472 38.3349C240.172 39.1122 239.076 40.2336 238.285 41.5942C237.495 42.9548 237.037 44.5101 236.953 46.1146C236.87 47.7191 237.164 49.3202 237.808 50.7682C235.99 53.4162 234.874 56.975 234.874 60.8915C234.874 64.808 235.99 68.3668 237.808 71.0148C237.164 72.4628 236.87 74.0639 236.953 75.6684C237.037 77.2728 237.495 78.8282 238.285 80.1888C239.076 81.5494 240.172 82.6708 241.472 83.4481C242.772 84.2254 244.233 84.6331 245.718 84.6331C247.203 84.6331 248.664 84.2254 249.964 83.4481C251.264 82.6708 252.36 81.5494 253.15 80.1888C253.941 78.8282 254.399 77.2728 254.482 75.6684C254.566 74.0639 254.272 72.4628 253.628 71.0148C255.446 68.3668 256.562 64.808 256.562 60.8915Z" fill="#FF7477"/>
<path opacity="0.2" d="M257.078 60.8912C257.078 56.9747 255.963 53.4159 254.144 50.7679C254.788 49.32 255.082 47.7188 254.999 46.1144C254.916 44.5099 254.457 42.9546 253.667 41.594C252.877 40.2334 251.78 39.1119 250.48 38.3347C249.181 37.5574 247.72 37.1497 246.235 37.1497C244.749 37.1497 243.288 37.5574 241.989 38.3347C240.689 39.1119 239.592 40.2334 238.802 41.594C238.012 42.9546 237.553 44.5099 237.47 46.1144C237.387 47.7188 237.681 49.32 238.325 50.7679C236.506 53.4159 235.391 56.9747 235.391 60.8912C235.391 64.8078 236.506 68.3666 238.325 71.0146C237.681 72.4625 237.387 74.0637 237.47 75.6681C237.553 77.2726 238.012 78.8279 238.802 80.1885C239.592 81.5491 240.689 82.6706 241.989 83.4479C243.288 84.2251 244.749 84.6328 246.235 84.6328C247.72 84.6328 249.181 84.2251 250.48 83.4479C251.78 82.6706 252.877 81.5491 253.667 80.1885C254.457 78.8279 254.916 77.2726 254.999 75.6681C255.082 74.0637 254.788 72.4625 254.144 71.0146C255.963 68.3666 257.078 64.8078 257.078 60.8912Z" fill="#FF7477"/>
<path opacity="0.2" d="M247.267 96.9288H245.202L246.235 60.0522L247.267 96.9288Z" fill="#FF7477"/>
<path opacity="0.2" d="M246.493 69.269L253.206 66.1987L246.493 70.1096V69.269Z" fill="#FF7477"/>
<path opacity="0.2" d="M245.883 72.6243L243.911 70.1099L245.844 74.0211L245.883 72.6243Z" fill="#FF7477"/>
</g>
<path d="M107.38 28.4463C115.558 28.4463 122.187 22.0784 122.187 14.2231C122.187 6.36792 115.558 0 107.38 0C99.2025 0 92.5732 6.36792 92.5732 14.2231C92.5732 22.0784 99.2025 28.4463 107.38 28.4463Z" fill="#FFFFA5"/>
<g opacity="0.3">
<g opacity="0.3">
<path d="M302.754 9.15479H274.207C272.296 9.15479 270.747 11.4238 270.747 14.2228V14.2228C270.747 17.0218 272.296 19.2908 274.207 19.2908H302.754C304.665 19.2908 306.215 17.0218 306.215 14.2228C306.215 11.4238 304.665 9.15479 302.754 9.15479Z" fill="#171717"/>
<path d="M302.754 9.15479H274.207C272.296 9.15479 270.747 11.4238 270.747 14.2228V14.2228C270.747 17.0218 272.296 19.2908 274.207 19.2908H302.754C304.665 19.2908 306.215 17.0218 306.215 14.2228C306.215 11.4238 304.665 9.15479 302.754 9.15479Z" fill="#171717"/>
</g>
<g opacity="0.3">
<path d="M294.104 19.2913H265.556C263.645 19.2913 262.096 21.5603 262.096 24.3593V24.3593C262.096 27.1583 263.645 29.4273 265.556 29.4273H294.104C296.015 29.4273 297.564 27.1583 297.564 24.3593C297.564 21.5603 296.015 19.2913 294.104 19.2913Z" fill="#171717"/>
<path d="M294.104 19.2913H265.556C263.645 19.2913 262.096 21.5603 262.096 24.3593V24.3593C262.096 27.1583 263.645 29.4273 265.556 29.4273H294.104C296.015 29.4273 297.564 27.1583 297.564 24.3593C297.564 21.5603 296.015 19.2913 294.104 19.2913Z" fill="#171717"/>
</g>
<g opacity="0.3">
<path d="M302.754 29.4272H274.207C272.296 29.4272 270.747 31.6963 270.747 34.4953V34.4953C270.747 37.2942 272.296 39.5633 274.207 39.5633H302.754C304.665 39.5633 306.215 37.2942 306.215 34.4953C306.215 31.6963 304.665 29.4272 302.754 29.4272Z" fill="#171717"/>
<path d="M302.754 29.4272H274.207C272.296 29.4272 270.747 31.6963 270.747 34.4953V34.4953C270.747 37.2942 272.296 39.5633 274.207 39.5633H302.754C304.665 39.5633 306.215 37.2942 306.215 34.4953C306.215 31.6963 304.665 29.4272 302.754 29.4272Z" fill="#171717"/>
</g>
</g>
<g opacity="0.3">
<g opacity="0.3">
<path d="M50.7845 4.65283H17.9358C15.7368 4.65283 13.9541 6.14111 13.9541 7.977V7.97702C13.9541 9.81291 15.7368 11.3012 17.9358 11.3012H50.7845C52.9835 11.3012 54.7662 9.81291 54.7662 7.977C54.7662 6.14111 52.9835 4.65283 50.7845 4.65283Z" fill="#171717"/>
<path d="M50.7845 4.65283H17.9358C15.7368 4.65283 13.9541 6.14111 13.9541 7.977V7.97702C13.9541 9.81291 15.7368 11.3012 17.9358 11.3012H50.7845C52.9835 11.3012 54.7662 9.81291 54.7662 7.977C54.7662 6.14111 52.9835 4.65283 50.7845 4.65283Z" fill="#171717"/>
</g>
<g opacity="0.3">
<path d="M40.8304 11.3013H7.98166C5.78265 11.3013 4 12.7896 4 14.6254V14.6255C4 16.4613 5.78265 17.9496 7.98166 17.9496H40.8304C43.0294 17.9496 44.8121 16.4613 44.8121 14.6254C44.8121 12.7896 43.0294 11.3013 40.8304 11.3013Z" fill="#171717"/>
<path d="M40.8304 11.3013H7.98166C5.78265 11.3013 4 12.7896 4 14.6254V14.6255C4 16.4613 5.78265 17.9496 7.98166 17.9496H40.8304C43.0294 17.9496 44.8121 16.4613 44.8121 14.6254C44.8121 12.7896 43.0294 11.3013 40.8304 11.3013Z" fill="#171717"/>
</g>
<g opacity="0.3">
<path d="M50.7845 17.9495H17.9358C15.7368 17.9495 13.9541 19.4377 13.9541 21.2736V21.2736C13.9541 23.1095 15.7368 24.5978 17.9358 24.5978H50.7845C52.9835 24.5978 54.7662 23.1095 54.7662 21.2736C54.7662 19.4377 52.9835 17.9495 50.7845 17.9495Z" fill="#171717"/>
<path d="M50.7845 17.9495H17.9358C15.7368 17.9495 13.9541 19.4377 13.9541 21.2736V21.2736C13.9541 23.1095 15.7368 24.5978 17.9358 24.5978H50.7845C52.9835 24.5978 54.7662 23.1095 54.7662 21.2736C54.7662 19.4377 52.9835 17.9495 50.7845 17.9495Z" fill="#171717"/>
</g>
</g>
<g clip-path="url(#clip0)" filter="url(#filter0_d)">
<g opacity="0.7">
<path opacity="0.7" d="M191.174 136.475H84.981L85.7162 78.4765L116.086 72.6145H159.024L190.439 76.7662L191.174 136.475Z" fill="url(#paint0_linear)"/>
</g>
<path d="M189.704 135.743H86.4512L87.1864 79.2075L116.184 73.3455H159.546L188.968 77.4972L189.704 135.743Z" fill="#F9F9F9"/>
<g opacity="0.7">
<path opacity="0.7" d="M126.033 51.8557H118.285V69.6854H126.033V51.8557Z" fill="url(#paint1_linear)"/>
</g>
<g opacity="0.7">
<path opacity="0.7" d="M118.282 92.3729V73.1018H84.6245L78.9087 92.3729V94.3479H118.494V92.3729H118.282Z" fill="url(#paint2_linear)"/>
</g>
<path d="M118.285 92.3938H79.3262L84.9807 73.3455H118.285V92.3938Z" fill="#FF7477"/>
<path opacity="0.1" d="M118.285 92.3938H79.3262L84.9807 73.3455H118.285V92.3938Z" fill="black"/>
<path d="M118.494 92.394H79.3262V94.348H118.494V92.394Z" fill="#FF7477"/>
<g opacity="0.7">
<path opacity="0.7" d="M190.782 72.8582H157.034V92.3477H156.822V94.3479H196.515V92.3477L190.782 72.8582Z" fill="url(#paint3_linear)"/>
</g>
<path d="M157.031 92.3938H195.989L190.335 73.3455H157.031V92.3938Z" fill="#FF7477"/>
<path opacity="0.1" d="M157.031 92.3938H195.989L190.335 73.3455H157.031V92.3938Z" fill="black"/>
<path d="M156.822 94.3479H195.989V92.3939H156.822V94.3479Z" fill="#FF7477"/>
<path opacity="0.5" d="M110.954 102.042H89.7993V117.426H110.954V102.042Z" fill="#FF7477"/>
<path opacity="0.1" d="M112.208 116.329H88.5415V119.015H112.208V116.329Z" fill="black"/>
<path d="M112.208 116.086H88.5415V118.771H112.208V116.086Z" fill="#535461"/>
<g opacity="0.1">
<path opacity="0.1" d="M110.954 102.042H89.7993V108.148H110.954V102.042Z" fill="black"/>
</g>
<path opacity="0.5" d="M185.729 102.042H164.574V117.426H185.729V102.042Z" fill="#FF7477"/>
<path opacity="0.1" d="M186.983 116.329H163.316V119.015H186.983V116.329Z" fill="black"/>
<path d="M186.983 116.086H163.316V118.771H186.983V116.086Z" fill="#535461"/>
<g opacity="0.1">
<path opacity="0.1" d="M185.729 102.042H164.574V108.148H185.729V102.042Z" fill="black"/>
</g>
<g opacity="0.7">
<path opacity="0.7" d="M163.561 74.4886L137.724 51.1919L112.72 74.4718L110.76 71.6101L137.695 46.5359L165.482 71.5933L163.561 74.4886Z" fill="url(#paint4_linear)"/>
</g>
<path opacity="0.1" d="M114.829 94.3479H86.9702V94.7135H114.829V94.3479Z" fill="black"/>
<path opacity="0.1" d="M189.185 94.3479H161.013V94.7135H189.185V94.3479Z" fill="black"/>
<path d="M125.824 52.0996H118.494V69.6814H125.824V52.0996Z" fill="#535461"/>
<g opacity="0.7">
<path opacity="0.7" d="M161.013 135.743H114.097V68.8283L137.757 68.219L161.013 68.8283V135.743Z" fill="url(#paint5_linear)"/>
</g>
<path d="M160.487 135.743H114.829V68.8283L137.66 49.9019L160.487 68.8283V135.743Z" fill="white"/>
<path d="M143.415 113.274H131.897V135.743H143.415V113.274Z" fill="#535461"/>
<path opacity="0.1" d="M149.491 93.1294H125.824V95.8146H149.491V93.1294Z" fill="black"/>
<path opacity="0.5" d="M148.237 78.842H127.082V94.2261H148.237V78.842Z" fill="#FF7477"/>
<path d="M149.491 92.8855H125.824V95.5707H149.491V92.8855Z" fill="#535461"/>
<g opacity="0.1">
<path opacity="0.1" d="M148.237 78.842H127.082V84.9478H148.237V78.842Z" fill="black"/>
</g>
<path d="M163.561 74.7325L137.724 51.4358L112.72 74.7157L110.76 71.854L137.695 46.7798L165.482 71.8372L163.561 74.7325Z" fill="#FF7477"/>
<path d="M141.743 125.486C142.205 125.486 142.579 125.049 142.579 124.511C142.579 123.972 142.205 123.536 141.743 123.536C141.281 123.536 140.907 123.972 140.907 124.511C140.907 125.049 141.281 125.486 141.743 125.486Z" fill="#E0E0E0"/>
<g opacity="0.7">
<path opacity="0.7" d="M52.088 89.0994H4.94141V137H52.088V89.0994Z" fill="url(#paint6_linear)"/>
</g>
<path d="M51.5905 89.6331H5.74854V136.458H51.5905V89.6331Z" fill="#F9F9F9"/>
<g opacity="0.7">
<path opacity="0.7" d="M20.1463 74.9509H14.4629V88.0238H20.1463V74.9509Z" fill="url(#paint7_linear)"/>
</g>
<path d="M19.9916 75.1313H14.6182V88.0236H19.9916V75.1313Z" fill="#535461"/>
<g opacity="0.7">
<path opacity="0.7" d="M45.792 136.462H11.3926V87.3976L28.7419 86.948L45.792 87.3976V136.462Z" fill="url(#paint8_linear)"/>
</g>
<path d="M45.4097 136.462H11.9292V87.3975L28.6694 73.5178L45.4097 87.3975V136.462Z" fill="white"/>
<path d="M32.8934 119.985H24.4458V136.458H32.8934V119.985Z" fill="#535461"/>
<path opacity="0.5" d="M36.4253 94.7388H20.9141V106.022H36.4253V94.7388Z" fill="#FF7477"/>
<path d="M37.3446 105.034H19.9917V107.005H37.3446V105.034Z" fill="#535461"/>
<g opacity="0.1">
<path opacity="0.1" d="M36.4253 94.7388H20.9141V99.2141H36.4253V94.7388Z" fill="black"/>
</g>
<g opacity="0.7">
<path opacity="0.7" d="M47.6587 91.5493L28.7165 74.4676L10.3833 91.5367L8.94531 89.4357L28.6948 71.0513L49.0678 89.4231L47.6587 91.5493Z" fill="url(#paint9_linear)"/>
</g>
<path d="M47.6587 91.7256L28.7165 74.6439L10.3833 91.713L8.94531 89.6161L28.6948 71.2275L49.0678 89.6035L47.6587 91.7256Z" fill="#FF7477"/>
<path d="M31.6644 128.94C32.0028 128.94 32.2771 128.62 32.2771 128.226C32.2771 127.831 32.0028 127.511 31.6644 127.511C31.3261 127.511 31.0518 127.831 31.0518 128.226C31.0518 128.62 31.3261 128.94 31.6644 128.94Z" fill="#E0E0E0"/>
<g opacity="0.7">
<path opacity="0.7" d="M313.606 136.613H226.24L226.842 60.6088L251.828 52.9272H287.157L313.005 58.369L313.606 136.613Z" fill="url(#paint10_linear)"/>
</g>
<path d="M312.4 135.655H227.448L228.053 61.567L251.911 53.8896H287.586L311.794 59.3272L312.4 135.655Z" fill="#F9F9F9"/>
<g opacity="0.7">
<path opacity="0.7" d="M260.013 20.1758H253.638V34.8455H260.013V20.1758Z" fill="url(#paint11_linear)"/>
</g>
<g opacity="0.7">
<path opacity="0.7" d="M253.637 65.3657V49.511H225.945L221.242 65.3657V66.9919H253.81V65.3657H253.637Z" fill="url(#paint12_linear)"/>
</g>
<path d="M253.638 65.3866H221.588L226.241 49.7126H253.638V65.3866Z" fill="#FF7477"/>
<path opacity="0.1" d="M253.638 65.3866H221.588L226.241 49.7126H253.638V65.3866Z" fill="black"/>
<path d="M253.814 65.3867H221.588V66.9961H253.814V65.3867Z" fill="#FF7477"/>
<g opacity="0.7">
<path opacity="0.7" d="M313.286 49.7126H285.521V65.748H285.345V67.3953H318V65.748L313.286 49.7126Z" fill="url(#paint13_linear)"/>
</g>
<path d="M285.518 65.786H317.571L312.919 50.1162H285.518V65.786Z" fill="#FF7477"/>
<path opacity="0.1" d="M285.518 65.786H317.571L312.919 50.1162H285.518V65.786Z" fill="black"/>
<path d="M285.345 67.3953H317.571V65.7859H285.345V67.3953Z" fill="#FF7477"/>
<path opacity="0.5" d="M247.605 108.282H230.201V120.939H247.605V108.282Z" fill="#FF7477"/>
<path opacity="0.1" d="M248.643 120.036H229.17V122.246H248.643V120.036Z" fill="black"/>
<path d="M248.643 119.838H229.17V122.048H248.643V119.838Z" fill="#535461"/>
<g opacity="0.1">
<path opacity="0.1" d="M247.605 108.282H230.201V113.304H247.605V108.282Z" fill="black"/>
</g>
<path opacity="0.5" d="M309.127 108.282H291.724V120.939H309.127V108.282Z" fill="#FF7477"/>
<path opacity="0.1" d="M310.161 120.036H290.689V122.246H310.161V120.036Z" fill="black"/>
<path d="M310.161 119.838H290.689V122.048H310.161V119.838Z" fill="#535461"/>
<g opacity="0.1">
<path opacity="0.1" d="M309.127 108.282H291.724V113.304H309.127V108.282Z" fill="black"/>
</g>
<path opacity="0.5" d="M309.127 78.7454H291.724V91.4022H309.127V78.7454Z" fill="#FF7477"/>
<path opacity="0.1" d="M310.161 90.5029H290.689V92.7133H310.161V90.5029Z" fill="black"/>
<path d="M310.161 90.3013H290.689V92.5116H310.161V90.3013Z" fill="#535461"/>
<g opacity="0.1">
<path opacity="0.1" d="M309.127 78.7454H291.724V83.7669H309.127V78.7454Z" fill="black"/>
</g>
<path opacity="0.5" d="M248.124 78.7454H230.72V91.4022H248.124V78.7454Z" fill="#FF7477"/>
<path opacity="0.1" d="M249.158 90.5029H229.686V92.7133H249.158V90.5029Z" fill="black"/>
<path d="M249.158 90.3013H229.686V92.5116H249.158V90.3013Z" fill="#535461"/>
<g opacity="0.1">
<path opacity="0.1" d="M248.124 78.7454H230.72V83.7669H248.124V78.7454Z" fill="black"/>
</g>
<g opacity="0.7">
<path opacity="0.7" d="M290.888 41.3084L269.636 22.1424L249.061 41.2958L247.446 38.9426L269.61 18.3101L292.47 38.9258L290.888 41.3084Z" fill="url(#paint14_linear)"/>
</g>
<path opacity="0.1" d="M250.794 66.9919H227.876V67.2945H250.794V66.9919Z" fill="black"/>
<path opacity="0.1" d="M311.971 67.3953H288.794V67.6978H311.971V67.3953Z" fill="black"/>
<path d="M259.843 20.3774H253.811V34.8454H259.843V20.3774Z" fill="#535461"/>
<g opacity="0.7">
<path opacity="0.7" d="M288.88 136.012H250.278V38.7451L269.747 37.8584L288.88 38.7451V136.012Z" fill="url(#paint15_linear)"/>
</g>
<path d="M288.361 136.012H250.794V38.3584L269.578 21.886L288.707 38.9635L288.361 136.012Z" fill="white"/>
<path d="M274.317 117.527H264.838V136.012H274.317V117.527Z" fill="#535461"/>
<path opacity="0.1" d="M279.316 100.949H259.844V103.16H279.316V100.949Z" fill="black"/>
<path opacity="0.5" d="M278.281 89.196H260.878V101.853H278.281V89.196Z" fill="#FF7477"/>
<path d="M279.316 100.748H259.844V102.958H279.316V100.748Z" fill="#535461"/>
<g opacity="0.1">
<path opacity="0.1" d="M278.281 89.196H260.878V94.2176H278.281V89.196Z" fill="black"/>
</g>
<path opacity="0.5" d="M278.281 64.3823H260.878V77.0392H278.281V64.3823Z" fill="#FF7477"/>
<path d="M279.316 75.9341H259.844V78.1444H279.316V75.9341Z" fill="#535461"/>
<g opacity="0.1">
<path opacity="0.1" d="M278.281 64.3823H260.878V69.4039H278.281V64.3823Z" fill="black"/>
</g>
<path opacity="0.5" d="M278.281 39.5645H260.878V52.2213H278.281V39.5645Z" fill="#FF7477"/>
<path d="M279.316 51.1204H259.844V53.3307H279.316V51.1204Z" fill="#535461"/>
<g opacity="0.1">
<path opacity="0.1" d="M278.281 39.5645H260.878V44.586H278.281V39.5645Z" fill="black"/>
</g>
<path d="M290.888 42.0143L269.636 22.8441L249.061 41.9975L247.446 39.6443L269.61 19.0117L292.47 39.6274L290.888 42.0143Z" fill="#FF7477"/>
<path d="M272.94 127.57C273.32 127.57 273.629 127.211 273.629 126.767C273.629 126.324 273.32 125.965 272.94 125.965C272.56 125.965 272.252 126.324 272.252 126.767C272.252 127.211 272.56 127.57 272.94 127.57Z" fill="#E0E0E0"/>
<path d="M45.259 106.126C44.0568 104.751 43.3867 102.936 43.3852 101.049C43.3921 99.7471 43.7124 98.4695 44.3149 97.3405C44.9174 96.2115 45.7815 95.2695 46.8231 94.6062C46.3571 93.8786 46.1069 93.0162 46.1055 92.1327C46.1055 89.6444 48.0468 87.6277 50.442 87.6277C51.3671 87.6175 52.2707 87.9273 53.0197 88.5113C53.7688 89.0952 54.3235 89.9226 54.6021 90.8713C55.1933 89.8709 56.0112 89.0485 56.9789 88.4812C57.9466 87.9138 59.0325 87.6201 60.1347 87.6277C63.703 87.6277 66.5965 90.6338 66.5965 94.3407C66.597 95.1325 66.463 95.9177 66.2009 96.6576C66.3312 96.6477 66.4631 96.6361 66.5965 96.6361C69.4609 96.6361 71.7825 99.0486 71.7825 102.025C71.7826 102.207 71.7739 102.388 71.7565 102.569C74.0474 103.595 75.6514 105.961 75.6514 108.717C75.6514 112.412 72.7685 115.408 69.211 115.408C68.8374 115.408 68.4645 115.374 68.0962 115.306C68.1146 115.529 68.1269 115.755 68.1269 115.982C68.1269 120.129 64.8914 123.492 60.8999 123.492C59.4348 123.496 58.0017 123.031 56.7842 122.154C55.799 123.023 54.5635 123.496 53.2895 123.492C50.307 123.492 47.8904 120.98 47.8904 117.885C47.8904 117.751 47.9011 117.62 47.9103 117.488H47.8904C44.6978 117.488 42.1094 114.798 42.1094 111.48C42.116 110.36 42.4147 109.265 42.9715 108.318C43.5282 107.372 44.3208 106.612 45.259 106.126V106.126Z" fill="url(#paint16_linear)"/>
<path d="M45.8433 106.101C44.6933 104.785 44.0524 103.048 44.0507 101.242C44.0573 99.9956 44.3638 98.7726 44.9405 97.6918C45.5172 96.611 46.3444 95.7092 47.3415 95.0744C46.8944 94.3764 46.6549 93.549 46.6545 92.7015C46.6545 90.3204 48.513 88.3894 50.8055 88.3894C51.6913 88.3799 52.5566 88.6762 53.2743 89.2349C53.9919 89.7935 54.524 90.5849 54.7923 91.4928C55.3577 90.5374 56.1391 89.7519 57.0635 89.2094C57.9878 88.667 59.025 88.3854 60.078 88.391C63.4945 88.391 66.2623 91.2685 66.2623 94.8221C66.2628 95.58 66.1344 96.3317 65.8835 97.04C66.0093 97.0301 66.135 97.0202 66.2623 97.0202C69.004 97.0202 71.226 99.3288 71.226 102.178C71.2256 102.352 71.217 102.526 71.1999 102.699C73.3927 103.689 74.9276 105.946 74.9276 108.583C74.9276 112.12 72.1675 114.988 68.7633 114.988C68.4036 114.988 68.0445 114.955 67.6899 114.89C67.7083 115.103 67.719 115.319 67.719 115.537C67.719 119.506 64.6215 122.723 60.8018 122.723C59.3996 122.727 58.0281 122.282 56.8625 121.443C55.9232 122.273 54.7456 122.726 53.5303 122.726C50.6766 122.726 48.3627 120.322 48.3627 117.357C48.3627 117.229 48.3719 117.103 48.3811 116.976H48.3627C45.3066 116.976 42.8286 114.402 42.8286 111.226C42.835 110.154 43.1209 109.106 43.6538 108.2C44.1868 107.294 44.9453 106.567 45.8433 106.101V106.101Z" fill="#2EC4B6"/>
<path d="M58.1277 98.5835H57.0083V138.527H58.1277V98.5835Z" fill="#795548"/>
<path d="M64.2353 111.115L57.3594 116.304L58.0024 117.289L64.8783 112.1L64.2353 111.115Z" fill="#795548"/>
<path d="M217.184 77.063C218.543 75.381 219.552 73.403 220.144 71.2626C220.736 69.1222 220.896 66.8693 220.614 64.6561C220.331 62.443 219.614 60.3211 218.508 58.434C217.403 56.5469 215.936 54.9385 214.207 53.7175C215.102 52.2202 215.576 50.4747 215.573 48.6919C215.573 43.6501 211.881 39.563 207.324 39.563C205.523 39.5774 203.776 40.2268 202.347 41.4129C200.918 42.5989 199.886 44.2568 199.407 46.135C198.333 44.1426 196.798 42.488 194.951 41.3353C193.105 40.1825 191.013 39.5716 188.882 39.563C182.092 39.563 176.586 45.6544 176.586 53.1681C176.584 54.7685 176.839 56.3571 177.338 57.8634C177.091 57.8438 176.84 57.8209 176.586 57.8209C171.147 57.8209 166.717 62.7254 166.717 68.7417C166.717 69.1144 166.735 69.4806 166.768 69.8435C164.55 70.9195 162.668 72.6697 161.352 74.8813C160.036 77.093 159.343 79.6707 159.356 82.301C159.356 89.7919 164.843 95.8637 171.609 95.8637C172.318 95.8626 173.026 95.7936 173.724 95.6577C173.688 96.1089 173.667 96.5667 173.667 97.0277C173.667 105.431 179.822 112.245 187.419 112.245C190.226 112.246 192.963 111.298 195.249 109.534C197.088 111.28 199.45 112.243 201.897 112.245C207.572 112.245 212.171 107.154 212.171 100.876C212.171 100.605 212.15 100.337 212.134 100.069H212.171C218.248 100.069 223.17 94.618 223.17 87.8955C223.18 85.671 222.627 83.486 221.572 81.5768C220.517 79.6675 218.999 78.1067 217.184 77.063V77.063Z" fill="url(#paint17_linear)"/>
<path d="M215.594 76.9912C216.869 75.4124 217.815 73.5561 218.37 71.5476C218.925 69.5391 219.075 67.4251 218.81 65.3486C218.545 63.272 217.871 61.2811 216.834 59.5104C215.797 57.7396 214.421 56.2303 212.799 55.0842C213.638 53.6784 214.083 52.0397 214.08 50.3661C214.08 45.6316 210.614 41.7962 206.335 41.7962C204.648 41.8126 203.011 42.4233 201.672 43.5359C200.334 44.6486 199.367 46.2026 198.917 47.9629C197.909 46.092 196.468 44.5384 194.734 43.4562C193.001 42.3739 191.037 41.8006 189.036 41.793C182.663 41.793 177.495 47.5117 177.495 54.5644C177.494 56.0667 177.733 57.558 178.202 58.9719C177.97 58.9523 177.734 58.9327 177.495 58.9327C172.379 58.9327 168.234 63.5102 168.234 69.1831C168.234 69.533 168.249 69.8763 168.282 70.2164C166.202 71.2289 164.438 72.8729 163.204 74.949C161.97 77.025 161.32 79.4439 161.332 81.912C161.332 88.9419 166.469 94.6409 172.836 94.6409C173.503 94.6404 174.17 94.5758 174.827 94.448C174.794 94.8731 174.773 95.3014 174.773 95.733C174.773 103.623 180.55 110.015 187.679 110.015C190.314 110.016 192.883 109.127 195.028 107.471C196.754 109.109 198.972 110.013 201.268 110.015C206.592 110.015 210.91 105.238 210.91 99.3427C210.91 99.0877 210.892 98.8359 210.877 98.5842H210.91C216.613 98.5842 221.236 93.4671 221.236 87.1566C221.243 85.0663 220.721 83.0137 219.727 81.2216C218.732 79.4295 217.303 77.9664 215.594 76.9912V76.9912Z" fill="#2EC4B6"/>
<path d="M194.596 61.823H193.088V141.378H194.596V61.823Z" fill="#795548"/>
<path d="M205.322 70.7901L192.946 85.2517L194.052 86.3603L206.429 71.8987L205.322 70.7901Z" fill="#795548"/>
</g>
<g opacity="0.3">
<g opacity="0.3">
<path d="M173.362 10.4631H150.373C148.834 10.4631 147.586 11.8131 147.586 13.4783V13.4783C147.586 15.1435 148.834 16.4934 150.373 16.4934H173.362C174.901 16.4934 176.149 15.1435 176.149 13.4783C176.149 11.8131 174.901 10.4631 173.362 10.4631Z" fill="#171717"/>
<path d="M173.362 10.4631H150.373C148.834 10.4631 147.586 11.8131 147.586 13.4783V13.4783C147.586 15.1435 148.834 16.4934 150.373 16.4934H173.362C174.901 16.4934 176.149 15.1435 176.149 13.4783C176.149 11.8131 174.901 10.4631 173.362 10.4631Z" fill="#171717"/>
</g>
<g opacity="0.3">
<path d="M166.396 16.4932H143.407C141.868 16.4932 140.62 17.8431 140.62 19.5083V19.5083C140.62 21.1735 141.868 22.5234 143.407 22.5234H166.396C167.935 22.5234 169.182 21.1735 169.182 19.5083C169.182 17.8431 167.935 16.4932 166.396 16.4932Z" fill="#171717"/>
<path d="M166.396 16.4932H143.407C141.868 16.4932 140.62 17.8431 140.62 19.5083V19.5083C140.62 21.1735 141.868 22.5234 143.407 22.5234H166.396C167.935 22.5234 169.182 21.1735 169.182 19.5083C169.182 17.8431 167.935 16.4932 166.396 16.4932Z" fill="#171717"/>
</g>
<g opacity="0.3">
<path d="M173.362 22.5237H150.373C148.834 22.5237 147.586 23.8736 147.586 25.5388V25.5388C147.586 27.204 148.834 28.554 150.373 28.554H173.362C174.901 28.554 176.149 27.204 176.149 25.5388C176.149 23.8736 174.901 22.5237 173.362 22.5237Z" fill="#171717"/>
<path d="M173.362 22.5237H150.373C148.834 22.5237 147.586 23.8736 147.586 25.5388V25.5388C147.586 27.204 148.834 28.554 150.373 28.554H173.362C174.901 28.554 176.149 27.204 176.149 25.5388C176.149 23.8736 174.901 22.5237 173.362 22.5237Z" fill="#171717"/>
</g>
</g>
<defs>
<filter id="filter0_d" x="0.941406" y="18.3101" width="321.059" height="126.69" filterUnits="userSpaceOnUse" color-interpolation-filters="sRGB">
<feFlood flood-opacity="0" result="BackgroundImageFix"/>
<feColorMatrix in="SourceAlpha" type="matrix" values="0 0 0 0 0 0 0 0 0 0 0 0 0 0 0 0 0 0 127 0"/>
<feOffset dy="4"/>
<feGaussianBlur stdDeviation="2"/>
<feColorMatrix type="matrix" values="0 0 0 0 0 0 0 0 0 0 0 0 0 0 0 0 0 0 0.25 0"/>
<feBlend mode="normal" in2="BackgroundImageFix" result="effect1_dropShadow"/>
<feBlend mode="normal" in="SourceGraphic" in2="effect1_dropShadow" result="shape"/>
</filter>
<linearGradient id="paint0_linear" x1="138.078" y1="136.475" x2="138.078" y2="72.6145" gradientUnits="userSpaceOnUse">
<stop stop-color="#808080" stop-opacity="0.25"/>
<stop offset="0.54" stop-color="#808080" stop-opacity="0.12"/>
<stop offset="1" stop-color="#808080" stop-opacity="0.1"/>
</linearGradient>
<linearGradient id="paint1_linear" x1="2638.46" y1="2231.54" x2="2638.46" y2="1475.2" gradientUnits="userSpaceOnUse">
<stop stop-color="#808080" stop-opacity="0.25"/>
<stop offset="0.54" stop-color="#808080" stop-opacity="0.12"/>
<stop offset="1" stop-color="#808080" stop-opacity="0.1"/>
</linearGradient>
<linearGradient id="paint2_linear" x1="10377.5" y1="3917.58" x2="10377.5" y2="2843.38" gradientUnits="userSpaceOnUse">
<stop stop-color="#808080" stop-opacity="0.25"/>
<stop offset="0.54" stop-color="#808080" stop-opacity="0.12"/>
<stop offset="1" stop-color="#808080" stop-opacity="0.1"/>
</linearGradient>
<linearGradient id="paint3_linear" x1="19070.8" y1="3961.43" x2="19070.8" y2="2862.44" gradientUnits="userSpaceOnUse">
<stop stop-color="#808080" stop-opacity="0.25"/>
<stop offset="0.54" stop-color="#808080" stop-opacity="0.12"/>
<stop offset="1" stop-color="#808080" stop-opacity="0.1"/>
</linearGradient>
<linearGradient id="paint4_linear" x1="20332.7" y1="3783.53" x2="20332.7" y2="1924.12" gradientUnits="userSpaceOnUse">
<stop stop-color="#808080" stop-opacity="0.25"/>
<stop offset="0.54" stop-color="#808080" stop-opacity="0.12"/>
<stop offset="1" stop-color="#808080" stop-opacity="0.1"/>
</linearGradient>
<linearGradient id="paint5_linear" x1="17377.7" y1="18938.6" x2="17377.7" y2="8088.08" gradientUnits="userSpaceOnUse">
<stop stop-color="#808080" stop-opacity="0.25"/>
<stop offset="0.54" stop-color="#808080" stop-opacity="0.12"/>
<stop offset="1" stop-color="#808080" stop-opacity="0.1"/>
</linearGradient>
<linearGradient id="paint6_linear" x1="3088.8" y1="13618.5" x2="3088.8" y2="8158.39" gradientUnits="userSpaceOnUse">
<stop stop-color="#808080" stop-opacity="0.25"/>
<stop offset="0.54" stop-color="#808080" stop-opacity="0.12"/>
<stop offset="1" stop-color="#808080" stop-opacity="0.1"/>
</linearGradient>
<linearGradient id="paint7_linear" x1="209.403" y1="2243.74" x2="209.403" y2="1837.04" gradientUnits="userSpaceOnUse">
<stop stop-color="#808080" stop-opacity="0.25"/>
<stop offset="0.54" stop-color="#808080" stop-opacity="0.12"/>
<stop offset="1" stop-color="#808080" stop-opacity="0.1"/>
</linearGradient>
<linearGradient id="paint8_linear" x1="2268.69" y1="14008.8" x2="2268.69" y2="8174.55" gradientUnits="userSpaceOnUse">
<stop stop-color="#808080" stop-opacity="0.25"/>
<stop offset="0.54" stop-color="#808080" stop-opacity="0.12"/>
<stop offset="1" stop-color="#808080" stop-opacity="0.1"/>
</linearGradient>
<linearGradient id="paint9_linear" x1="2688.33" y1="3643.66" x2="2688.33" y2="2643.76" gradientUnits="userSpaceOnUse">
<stop stop-color="#808080" stop-opacity="0.25"/>
<stop offset="0.54" stop-color="#808080" stop-opacity="0.12"/>
<stop offset="1" stop-color="#808080" stop-opacity="0.1"/>
</linearGradient>
<linearGradient id="paint10_linear" x1="64463.1" y1="23613" x2="64463.1" y2="6946.96" gradientUnits="userSpaceOnUse">
<stop stop-color="#808080" stop-opacity="0.25"/>
<stop offset="0.54" stop-color="#808080" stop-opacity="0.12"/>
<stop offset="1" stop-color="#808080" stop-opacity="0.1"/>
</linearGradient>
<linearGradient id="paint11_linear" x1="4709.48" y1="597.428" x2="4709.48" y2="85.3092" gradientUnits="userSpaceOnUse">
<stop stop-color="#808080" stop-opacity="0.25"/>
<stop offset="0.54" stop-color="#808080" stop-opacity="0.12"/>
<stop offset="1" stop-color="#808080" stop-opacity="0.1"/>
</linearGradient>
<linearGradient id="paint12_linear" x1="21240.1" y1="2074.68" x2="21240.1" y2="1347.47" gradientUnits="userSpaceOnUse">
<stop stop-color="#808080" stop-opacity="0.25"/>
<stop offset="0.54" stop-color="#808080" stop-opacity="0.12"/>
<stop offset="1" stop-color="#808080" stop-opacity="0.1"/>
</linearGradient>
<linearGradient id="paint13_linear" x1="27172.4" y1="2115.22" x2="27172.4" y2="1371.14" gradientUnits="userSpaceOnUse">
<stop stop-color="#808080" stop-opacity="0.25"/>
<stop offset="0.54" stop-color="#808080" stop-opacity="0.12"/>
<stop offset="1" stop-color="#808080" stop-opacity="0.1"/>
</linearGradient>
<linearGradient id="paint14_linear" x1="33356.2" y1="1277.01" x2="33356.2" y2="18.3101" gradientUnits="userSpaceOnUse">
<stop stop-color="#808080" stop-opacity="0.25"/>
<stop offset="0.54" stop-color="#808080" stop-opacity="0.12"/>
<stop offset="1" stop-color="#808080" stop-opacity="0.1"/>
</linearGradient>
<linearGradient id="paint15_linear" x1="28595.5" y1="27530.7" x2="28595.5" y2="4603.97" gradientUnits="userSpaceOnUse">
<stop stop-color="#808080" stop-opacity="0.25"/>
<stop offset="0.54" stop-color="#808080" stop-opacity="0.12"/>
<stop offset="1" stop-color="#808080" stop-opacity="0.1"/>
</linearGradient>
<linearGradient id="paint16_linear" x1="58.8819" y1="123.487" x2="58.8819" y2="87.6211" gradientUnits="userSpaceOnUse">
<stop stop-color="#808080" stop-opacity="0.25"/>
<stop offset="0.54" stop-color="#808080" stop-opacity="0.12"/>
<stop offset="1" stop-color="#808080" stop-opacity="0.1"/>
</linearGradient>
<linearGradient id="paint17_linear" x1="58465.6" y1="45842.9" x2="58465.6" y2="29685.8" gradientUnits="userSpaceOnUse">
<stop stop-color="#808080" stop-opacity="0.25"/>
<stop offset="0.54" stop-color="#808080" stop-opacity="0.12"/>
<stop offset="1" stop-color="#808080" stop-opacity="0.1"/>
</linearGradient>
<clipPath id="clip0">
<rect width="313.059" height="118.69" fill="white" transform="translate(4.94141 18.3101)"/>
</clipPath>
</defs>
</svg>
