<svg width="486" height="300" viewBox="0 0 486 300" fill="none" xmlns="http://www.w3.org/2000/svg">
<g id="main-img">
<path id="Rectangle 5" d="M30.8583 117.186C39.8802 95.5507 52.7801 78.6515 75.5735 73.1796V73.1796C137.019 58.4288 232.291 105.22 263.848 50.4721V50.4721C280.964 20.7781 312.059 0.0847221 346.321 0.952575C381.119 1.83398 405.828 7.43592 422.24 20.301C484.013 68.7229 499.979 186.275 446.571 243.792C444.248 246.293 441.782 248.843 439.171 251.447C420.442 270.13 394.763 279.774 368.363 281.478L145.52 295.855C9.81412 313.229 -37.0861 280.122 30.8583 117.186Z" fill="#FFB1B3"/>
<g id="undraw_house_searching_n8mp 1" clip-path="url(#clip0)">
<path id="Vector" opacity="0.3" d="M123.465 244.971C172.146 244.971 211.609 205.461 211.609 156.723C211.609 107.985 172.146 68.4755 123.465 68.4755C74.7845 68.4755 35.3209 107.985 35.3209 156.723C35.3209 205.461 74.7845 244.971 123.465 244.971Z" stroke="#FF9800" stroke-width="4" stroke-miterlimit="10" stroke-dasharray="12 12"/>
<path id="Vector_2" opacity="0.3" d="M355.934 227.516C404.614 227.516 444.078 188.006 444.078 139.268C444.078 90.5298 404.614 51.0199 355.934 51.0199C307.253 51.0199 267.789 90.5298 267.789 139.268C267.789 188.006 307.253 227.516 355.934 227.516Z" stroke="#FF9800" stroke-width="4" stroke-miterlimit="10" stroke-dasharray="12 12"/>
<g id="&#60;Group&#62;">
<path id="Vector_3" d="M390.01 173.369C386.213 169.327 384.096 163.989 384.091 158.44C384.113 154.612 385.125 150.856 387.028 147.536C388.931 144.216 391.66 141.446 394.95 139.496C393.478 137.356 392.688 134.82 392.683 132.222C392.683 124.906 398.814 118.976 406.379 118.976C409.301 118.946 412.155 119.857 414.521 121.574C416.886 123.291 418.638 125.724 419.519 128.513C421.386 125.572 423.969 123.153 427.025 121.485C430.082 119.817 433.511 118.953 436.992 118.976C448.262 118.976 457.401 127.815 457.401 138.715C457.403 141.043 456.979 143.352 456.152 145.528C456.563 145.498 456.98 145.464 457.401 145.464C466.448 145.464 473.781 152.558 473.781 161.31C473.781 161.845 473.753 162.379 473.698 162.91C480.934 165.926 486 172.884 486 180.987C486 191.853 476.895 200.663 465.659 200.663C464.479 200.661 463.301 200.561 462.138 200.362C462.196 201.017 462.235 201.681 462.235 202.35C462.235 214.545 452.016 224.432 439.409 224.432C434.782 224.445 430.256 223.076 426.41 220.499C423.299 223.053 419.396 224.444 415.373 224.432C405.953 224.432 398.32 217.047 398.32 207.946C398.32 207.553 398.354 207.165 398.383 206.777H398.32C388.237 206.777 380.062 198.869 380.062 189.113C380.083 185.82 381.026 182.599 382.785 179.816C384.543 177.032 387.046 174.799 390.01 173.369V173.369Z" fill="url(#paint0_linear)"/>
</g>
<path id="&#60;Path&#62;" d="M391.855 173.296C388.223 169.426 386.199 164.317 386.193 159.007C386.214 155.343 387.182 151.747 389.003 148.569C390.825 145.391 393.437 142.739 396.587 140.873C395.175 138.82 394.418 136.387 394.417 133.895C394.417 126.894 400.287 121.216 407.527 121.216C410.325 121.188 413.058 122.059 415.324 123.702C417.591 125.344 419.272 127.671 420.119 130.341C421.905 127.532 424.373 125.222 427.292 123.627C430.212 122.032 433.487 121.204 436.813 121.221C447.604 121.221 456.345 129.682 456.345 140.131C456.347 142.359 455.942 144.57 455.149 146.652C455.546 146.623 455.943 146.594 456.345 146.594C465.005 146.594 472.023 153.383 472.023 161.761C472.022 162.273 471.994 162.784 471.94 163.293C478.866 166.203 483.714 172.841 483.714 180.594C483.714 190.995 474.996 199.427 464.245 199.427C463.108 199.427 461.974 199.331 460.854 199.14C460.913 199.766 460.946 200.401 460.946 201.041C460.946 212.712 451.163 222.172 439.099 222.172C434.671 222.184 430.339 220.874 426.657 218.41C423.691 220.848 419.972 222.181 416.133 222.182C407.12 222.182 399.812 215.112 399.812 206.394C399.812 206.016 399.841 205.648 399.87 205.274H399.812C390.16 205.274 382.333 197.705 382.333 188.367C382.353 185.214 383.256 182.131 384.94 179.467C386.623 176.803 389.019 174.665 391.855 173.296V173.296Z" fill="#2EC4B6"/>
<path id="Vector_4" d="M431.97 151.191H425.582V268.643H431.97V151.191Z" fill="url(#paint1_linear)"/>
<path id="Vector_5" d="M430.653 151.191H427.117V268.643H430.653V151.191Z" fill="#795548"/>
<path id="Vector_6" d="M409.558 163.738L407.033 166.216L427.982 187.611L430.507 185.133L409.558 163.738Z" fill="#795548"/>
<path id="Vector_7" d="M449.944 188.038L428.228 203.296L430.259 206.193L451.975 190.935L449.944 188.038Z" fill="#795548"/>
<g id="&#60;Group&#62;_2">
<path id="Vector_8" d="M432.188 175.43C434.366 172.936 435.984 170.002 436.932 166.828C437.881 163.654 438.137 160.313 437.685 157.031C437.233 153.749 436.082 150.603 434.311 147.804C432.54 145.006 430.189 142.62 427.418 140.81C428.851 138.589 429.611 136.001 429.607 133.357C429.607 125.88 423.689 119.819 416.385 119.819C413.499 119.841 410.699 120.804 408.409 122.563C406.119 124.321 404.464 126.78 403.696 129.565C401.976 126.611 399.515 124.157 396.556 122.447C393.597 120.738 390.244 119.832 386.828 119.819C375.945 119.819 367.121 128.853 367.121 139.995C367.118 142.368 367.526 144.724 368.327 146.958C367.93 146.929 367.528 146.895 367.121 146.895C358.404 146.895 351.304 154.168 351.304 163.09C351.304 163.643 351.333 164.186 351.386 164.724C347.831 166.319 344.815 168.915 342.706 172.195C340.597 175.474 339.485 179.297 339.506 183.198C339.506 194.306 348.301 203.31 359.145 203.31C360.281 203.309 361.416 203.207 362.535 203.005C362.477 203.674 362.443 204.353 362.443 205.037C362.443 217.498 372.308 227.603 384.484 227.603C388.983 227.604 393.37 226.199 397.032 223.583C399.98 226.172 403.766 227.6 407.687 227.603C416.782 227.603 424.153 220.053 424.153 210.744C424.153 210.341 424.12 209.944 424.095 209.546H424.153C433.893 209.546 441.782 201.463 441.782 191.494C441.798 188.195 440.912 184.955 439.221 182.124C437.53 179.292 435.098 176.978 432.188 175.43V175.43Z" fill="url(#paint2_linear)"/>
</g>
<path id="&#60;Path&#62;_2" d="M429.641 175.323C431.683 172.982 433.2 170.229 434.09 167.251C434.979 164.272 435.219 161.137 434.794 158.058C434.37 154.978 433.29 152.026 431.628 149.4C429.966 146.774 427.761 144.536 425.161 142.836C426.506 140.752 427.219 138.321 427.214 135.84C427.214 128.819 421.659 123.131 414.801 123.131C412.096 123.155 409.473 124.061 407.328 125.711C405.182 127.361 403.632 129.665 402.912 132.276C401.297 129.501 398.986 127.197 396.208 125.593C393.43 123.988 390.282 123.137 387.075 123.126C376.861 123.126 368.579 131.607 368.579 142.065C368.577 144.293 368.96 146.505 369.712 148.602C369.339 148.573 368.962 148.543 368.579 148.543C360.38 148.543 353.735 155.332 353.735 163.744C353.735 164.263 353.759 164.772 353.812 165.277C350.478 166.778 347.651 169.216 345.674 172.295C343.697 175.374 342.654 178.961 342.673 182.621C342.673 193.046 350.906 201.497 361.111 201.497C362.181 201.496 363.249 201.4 364.302 201.211C364.249 201.841 364.215 202.476 364.215 203.117C364.215 214.817 373.475 224.296 384.9 224.296C389.123 224.298 393.241 222.979 396.679 220.524C399.445 222.953 402.999 224.294 406.68 224.296C415.213 224.296 422.134 217.212 422.134 208.47C422.134 208.091 422.105 207.718 422.081 207.345H422.134C431.273 207.345 438.683 199.756 438.683 190.398C438.694 187.298 437.858 184.254 436.264 181.597C434.67 178.939 432.379 176.77 429.641 175.323V175.323Z" fill="#00897B"/>
<path id="Vector_9" d="M397.008 151.147H392.204V270.806H397.008V151.147Z" fill="url(#paint3_linear)"/>
<path id="Vector_10" d="M395.986 152.83H393.569V270.806H395.986V152.83Z" fill="#795548"/>
<path id="Vector_11" d="M413.177 166.127L393.342 187.573L395.115 189.217L414.951 167.771L413.177 166.127Z" fill="#795548"/>
<path id="Vector_12" d="M374.397 190.601L372.956 192.543L393.521 207.833L394.961 205.891L374.397 190.601Z" fill="#795548"/>
<g id="&#60;Group&#62;_3">
<path id="Vector_13" d="M339.617 210.419C337.03 207.661 335.589 204.02 335.588 200.236C335.603 197.628 336.293 195.069 337.59 192.807C338.887 190.545 340.746 188.658 342.988 187.329C341.982 185.867 341.444 184.134 341.443 182.359C341.443 177.374 345.623 173.33 350.776 173.33C352.767 173.31 354.711 173.931 356.323 175.1C357.936 176.27 359.13 177.927 359.731 179.828C361.004 177.824 362.764 176.176 364.847 175.04C366.93 173.903 369.268 173.315 371.64 173.33C379.321 173.33 385.549 179.353 385.549 186.781C385.55 188.368 385.261 189.943 384.697 191.426C384.978 191.426 385.259 191.382 385.549 191.382C391.714 191.382 396.688 196.231 396.688 202.181C396.688 202.545 396.668 202.909 396.63 203.272C399.089 204.264 401.198 205.965 402.69 208.158C404.182 210.351 404.991 212.939 405.014 215.592C405.014 222.997 398.809 228.999 391.153 228.999C390.341 229 389.531 228.932 388.731 228.796C388.775 229.242 388.799 229.693 388.799 230.148C388.799 238.459 381.834 245.18 373.243 245.18C370.108 245.194 367.039 244.278 364.424 242.547C362.3 244.279 359.641 245.218 356.902 245.204C350.485 245.204 345.279 240.171 345.279 233.964C345.279 233.693 345.279 233.431 345.322 233.169H345.279C338.406 233.169 332.837 227.782 332.837 221.135C332.854 218.893 333.498 216.7 334.697 214.806C335.895 212.912 337.6 211.392 339.617 210.419V210.419Z" fill="url(#paint4_linear)"/>
</g>
<path id="&#60;Path&#62;_3" d="M340.872 210.37C338.391 207.736 337.005 204.254 336.997 200.634C337.012 198.137 337.672 195.687 338.914 193.522C340.156 191.357 341.936 189.551 344.083 188.279C343.12 186.88 342.605 185.221 342.605 183.523C342.605 178.751 346.606 174.882 351.536 174.882C353.442 174.862 355.304 175.456 356.848 176.576C358.391 177.696 359.534 179.283 360.108 181.103C361.326 179.185 363.011 177.608 365.004 176.52C366.997 175.432 369.234 174.868 371.504 174.882C378.856 174.882 384.818 180.647 384.818 187.76C384.82 189.28 384.544 190.787 384.004 192.207C384.275 192.207 384.542 192.168 384.818 192.168C390.717 192.168 395.502 196.794 395.502 202.501C395.502 202.849 395.484 203.197 395.448 203.543C397.801 204.493 399.82 206.121 401.249 208.22C402.677 210.319 403.451 212.795 403.473 215.335C403.473 222.424 397.531 228.17 390.203 228.17C389.434 228.17 388.666 228.105 387.908 227.976C387.946 228.403 387.971 228.834 387.971 229.271C387.971 237.223 381.307 243.672 373.083 243.672C370.066 243.679 367.115 242.786 364.608 241.107C362.579 242.772 360.034 243.679 357.411 243.672C351.27 243.672 346.272 238.857 346.272 232.912C346.272 232.655 346.272 232.403 346.31 232.151H346.272C339.695 232.151 334.362 226.992 334.362 220.63C334.38 218.482 334.999 216.381 336.15 214.567C337.3 212.753 338.936 211.299 340.872 210.37V210.37Z" fill="#2EC4B6"/>
<path id="Vector_14" d="M368.211 195.305H363.857V275.344H368.211V195.305Z" fill="url(#paint5_linear)"/>
<path id="Vector_15" d="M367.31 195.305H364.903V275.344H367.31V195.305Z" fill="#795548"/>
<path id="Vector_16" d="M352.934 203.853L351.215 205.54L365.488 220.117L367.207 218.43L352.934 203.853Z" fill="#795548"/>
<path id="Vector_17" d="M380.462 220.411L365.663 230.808L367.046 232.781L381.844 222.383L380.462 220.411Z" fill="#795548"/>
<g id="&#60;Group&#62;_4">
<path id="Vector_18" d="M380.575 212.795C382.04 211.122 383.129 209.154 383.767 207.023C384.405 204.892 384.579 202.649 384.275 200.445C383.971 198.241 383.198 196.129 382.007 194.251C380.817 192.372 379.236 190.772 377.374 189.559C378.329 188.066 378.834 186.329 378.827 184.555C378.879 182.391 378.137 180.282 376.743 178.627C375.348 176.972 373.397 175.886 371.257 175.573C369.117 175.259 366.937 175.741 365.127 176.927C363.318 178.113 362.005 179.921 361.435 182.01C360.281 180.028 358.631 178.382 356.646 177.235C354.662 176.088 352.413 175.479 350.122 175.469C342.819 175.469 336.895 181.53 336.895 189.011C336.893 190.605 337.167 192.186 337.704 193.686C337.438 193.686 337.167 193.642 336.895 193.642C335.485 193.658 334.092 193.952 332.796 194.506C331.499 195.061 330.324 195.867 329.338 196.876C328.353 197.886 327.575 199.08 327.05 200.39C326.525 201.7 326.263 203.101 326.279 204.513C326.279 204.881 326.279 205.25 326.333 205.609C323.946 206.68 321.922 208.423 320.507 210.625C319.092 212.827 318.346 215.393 318.361 218.012C318.361 225.465 324.265 231.511 331.544 231.511C332.309 231.511 333.072 231.442 333.825 231.307C333.786 231.758 333.762 232.209 333.762 232.67C333.762 241.034 340.387 247.817 348.553 247.817C351.572 247.819 354.516 246.876 356.975 245.122C358.954 246.858 361.496 247.816 364.128 247.817C365.596 247.801 367.046 247.495 368.396 246.918C369.746 246.34 370.969 245.502 371.995 244.451C373.022 243.4 373.831 242.157 374.378 240.793C374.924 239.429 375.197 237.97 375.18 236.5C375.18 236.229 375.18 235.962 375.141 235.695H375.18C381.718 235.695 387.017 230.27 387.017 223.574C387.026 221.36 386.431 219.186 385.296 217.286C384.16 215.386 382.528 213.833 380.575 212.795V212.795Z" fill="url(#paint6_linear)"/>
</g>
<path id="&#60;Path&#62;_4" d="M378.866 212.727C380.239 211.155 381.259 209.306 381.857 207.306C382.455 205.305 382.617 203.199 382.332 201.13C382.047 199.062 381.321 197.078 380.204 195.315C379.087 193.551 377.605 192.048 375.858 190.907C376.761 189.509 377.24 187.879 377.238 186.214C377.287 184.182 376.592 182.202 375.283 180.648C373.973 179.095 372.142 178.074 370.133 177.78C368.124 177.486 366.077 177.938 364.378 179.052C362.68 180.165 361.447 181.862 360.912 183.823C359.828 181.962 358.277 180.416 356.412 179.339C354.548 178.262 352.434 177.692 350.282 177.685C343.424 177.685 337.869 183.377 337.869 190.398C337.867 191.894 338.124 193.379 338.629 194.786C338.377 194.786 338.145 194.748 337.869 194.748C335.2 194.778 332.652 195.868 330.785 197.776C328.917 199.685 327.882 202.258 327.907 204.93C327.907 205.279 327.907 205.623 327.955 205.958C325.716 206.963 323.816 208.598 322.488 210.664C321.16 212.73 320.459 215.138 320.472 217.595C320.472 224.592 326.013 230.265 332.847 230.265C333.564 230.264 334.281 230.199 334.987 230.071C334.948 230.493 334.929 230.919 334.929 231.351C334.929 239.201 341.148 245.568 348.814 245.568C351.65 245.57 354.415 244.685 356.723 243.037C358.579 244.668 360.965 245.568 363.436 245.568C366.217 245.536 368.873 244.399 370.818 242.408C372.763 240.417 373.839 237.734 373.809 234.949C373.809 234.697 373.809 234.464 373.771 234.197H373.809C375.285 234.181 376.743 233.873 378.1 233.293C379.457 232.712 380.686 231.87 381.718 230.813C382.75 229.757 383.563 228.508 384.113 227.137C384.662 225.765 384.936 224.299 384.92 222.822C384.924 220.747 384.362 218.71 383.295 216.931C382.228 215.152 380.697 213.699 378.866 212.727V212.727Z" fill="#00897B"/>
<path id="Vector_19" d="M356.965 196.498H353.74V276.813H356.965V196.498Z" fill="url(#paint7_linear)"/>
<path id="Vector_20" d="M356.277 197.628H354.655V276.813H356.277V197.628Z" fill="#795548"/>
<path id="Vector_21" d="M367.813 206.547L354.499 220.941L355.689 222.045L369.003 207.651L367.813 206.547Z" fill="#795548"/>
<path id="Vector_22" d="M341.783 222.98L340.815 224.284L354.618 234.547L355.586 233.242L341.783 222.98Z" fill="#795548"/>
<path id="Vector_23" d="M351.846 157.106H215.271V278.811H351.846V157.106Z" fill="url(#paint8_linear)"/>
<path id="Vector_24" d="M348.456 157.106H125.674V274.932H348.456V157.106Z" fill="white"/>
<path id="Vector_25" d="M359.116 168.743H140.208V111.528H351.124C353.244 111.528 355.276 112.371 356.775 113.871C358.274 115.372 359.116 117.406 359.116 119.528V168.743Z" fill="url(#paint9_linear)"/>
<path id="Vector_26" d="M140.203 113.792H349.24C351.36 113.792 353.392 114.635 354.891 116.135C356.39 117.636 357.232 119.671 357.232 121.793V167.269H140.203V113.792Z" fill="#FF7477"/>
<path id="Vector_27" opacity="0.7" d="M140.203 113.792H349.24C351.36 113.792 353.392 114.635 354.891 116.135C356.39 117.636 357.232 119.671 357.232 121.793V167.269H140.203V113.792Z" fill="white"/>
<path id="Vector_28" d="M139.719 49.4585L64.1664 102.727V147.612V278.806H215.271V147.612V102.727L139.719 49.4585Z" fill="url(#paint10_linear)"/>
<path id="Vector_29" d="M211.881 101.83L140.203 49.4585L68.5252 101.83V145.949H211.881V101.83Z" fill="#FF7477"/>
<path id="Vector_30" opacity="0.5" d="M211.881 101.83L140.203 49.4585L68.5252 101.83V145.949H211.881V101.83Z" fill="white"/>
<path id="Vector_31" d="M211.881 145.954H68.5252V274.932H211.881V145.954Z" fill="white"/>
<path id="Vector_32" d="M221.083 128.009L140.203 70.1871L58.3547 128.009L53.0273 107.673L140.203 44.1491L227.379 107.673L221.083 128.009Z" fill="url(#paint11_linear)"/>
<path id="Vector_33" d="M220.342 125.032L140.203 66.6378L60.0691 125.032L56.6451 106.747L140.203 45.8656L223.766 106.747L220.342 125.032Z" fill="#FF7477"/>
<path id="Vector_34" opacity="0.2" d="M220.342 125.032L140.203 66.6378L60.0691 125.032L56.6451 106.747L140.203 45.8656L223.766 106.747L220.342 125.032Z" fill="black"/>
<path id="Vector_35" d="M180.885 174.077H99.521V274.932H180.885V174.077Z" fill="#F2F2F2"/>
<path id="Vector_36" d="M180.885 174.077H99.521V191.533H180.885V174.077Z" fill="#FF7477"/>
<path id="Vector_37" d="M180.885 257.476H99.521V274.932H180.885V257.476Z" fill="#FF7477"/>
<path id="Vector_38" d="M276.458 238.668C276.651 238.668 276.836 238.591 276.972 238.455C277.108 238.318 277.185 238.133 277.185 237.94C277.185 237.748 277.108 237.563 276.972 237.426C276.836 237.29 276.651 237.213 276.458 237.213C276.266 237.213 276.081 237.29 275.945 237.426C275.809 237.563 275.732 237.748 275.732 237.94C275.732 238.133 275.809 238.318 275.945 238.455C276.081 238.591 276.266 238.668 276.458 238.668V238.668Z" fill="#00FF00"/>
<path id="Vector_39" d="M296.15 201.23H256.437V274.932H296.15V201.23Z" fill="#F2F2F2"/>
<path id="Vector_40" d="M343.613 185.714H306.321V212.867H343.613V185.714Z" fill="#F2F2F2"/>
<path id="Vector_41" opacity="0.2" d="M343.613 185.714H306.321V197.836H343.613V185.714Z" fill="#FF7477"/>
<g id="&#60;Group&#62;_5">
<path id="Vector_42" d="M48.3973 224.873C46.2308 222.581 45.0184 219.548 45.0071 216.392C45.0217 214.219 45.5975 212.086 46.6787 210.2C47.7598 208.315 49.3095 206.742 51.1772 205.633C50.3391 204.415 49.8899 202.971 49.8889 201.492C49.9246 199.462 50.7639 197.529 52.2223 196.118C53.6807 194.707 55.6391 193.933 57.667 193.967C59.3299 193.948 60.9548 194.466 62.3013 195.443C63.6479 196.42 64.6448 197.805 65.1447 199.393C66.206 197.722 67.6738 196.349 69.4104 195.401C71.147 194.454 73.0954 193.964 75.073 193.977C81.4756 193.977 86.6674 199 86.6674 205.192C86.6686 206.517 86.4273 207.832 85.9554 209.071C86.1928 209.071 86.4398 209.037 86.6674 209.037C91.8059 209.037 95.971 213.066 95.971 218.036C95.9704 218.339 95.9543 218.642 95.9225 218.943C97.9718 219.77 99.7298 221.188 100.974 223.016C102.218 224.844 102.892 227.001 102.911 229.213C102.911 235.385 97.7387 240.389 91.3555 240.389C90.6852 240.389 90.0161 240.332 89.3553 240.219C89.3892 240.593 89.4086 240.966 89.4086 241.349C89.4086 248.278 83.5969 253.893 76.4436 253.893C73.8144 253.9 71.2429 253.122 69.0579 251.658C67.29 253.109 65.0725 253.9 62.7861 253.893C57.4587 253.893 53.0999 249.699 53.0999 244.52C53.0999 244.297 53.0999 244.074 53.1338 243.856H53.0999C47.3705 243.856 42.726 239.361 42.726 233.824C42.7383 231.95 43.2766 230.117 44.2794 228.534C45.2821 226.951 46.709 225.683 48.3973 224.873V224.873Z" fill="url(#paint12_linear)"/>
</g>
<path id="&#60;Path&#62;_5" d="M49.4288 224.834C47.3661 222.636 46.2164 219.734 46.213 216.717C46.225 214.636 46.7751 212.594 47.8097 210.789C48.8443 208.984 50.3282 207.479 52.1168 206.419C51.3149 205.252 50.886 203.869 50.8866 202.452C50.903 201.489 51.1087 200.539 51.4919 199.656C51.8752 198.773 52.4284 197.974 53.1201 197.305C53.8118 196.636 54.6284 196.11 55.5232 195.756C56.4181 195.403 57.3736 195.23 58.3353 195.247C59.9235 195.231 61.4748 195.726 62.7608 196.659C64.0469 197.592 64.9996 198.914 65.4789 200.43C66.4945 198.831 67.8993 197.517 69.5613 196.61C71.2234 195.703 73.0883 195.234 74.981 195.247C81.1075 195.247 86.0765 200.052 86.0765 205.982C86.0778 207.248 85.848 208.503 85.3985 209.687C85.6213 209.687 85.8489 209.653 86.0765 209.653C90.9971 209.653 94.983 213.532 94.983 218.269C94.9834 218.559 94.9688 218.849 94.9394 219.137C96.9001 219.93 98.5816 221.288 99.7713 223.038C100.961 224.789 101.605 226.853 101.623 228.97C101.623 234.881 96.6732 239.672 90.5612 239.672C89.912 239.671 89.2639 239.616 88.624 239.507C88.6579 239.861 88.6773 240.224 88.6773 240.588C88.6773 247.216 83.1222 252.594 76.2644 252.594C73.7569 252.594 71.3058 251.848 69.2226 250.45C67.531 251.839 65.4095 252.595 63.222 252.589C58.1028 252.589 53.9523 248.574 53.9523 243.618C53.9523 243.405 53.9523 243.192 53.9862 242.983H53.9523C48.4699 242.983 44.024 238.682 44.024 233.378C44.0383 231.591 44.5521 229.843 45.5074 228.333C46.4626 226.823 47.821 225.611 49.4288 224.834V224.834Z" fill="#2EC4B6"/>
<path id="Vector_43" d="M72.2204 212.276H68.5881V279H72.2204V212.276Z" fill="url(#paint13_linear)"/>
<path id="Vector_44" d="M71.4649 212.276H69.4599V279H71.4649V212.276Z" fill="#795548"/>
<path id="Vector_45" d="M59.4813 219.4L58.0495 220.805L69.9496 232.959L71.3814 231.553L59.4813 219.4Z" fill="#795548"/>
<path id="Vector_46" d="M82.4307 233.206L70.0938 241.874L71.2455 243.517L83.5825 234.849L82.4307 233.206Z" fill="#795548"/>
<g id="&#60;Group&#62;_6">
<path id="Vector_47" d="M24.6658 224.873C22.4993 222.581 21.287 219.548 21.2756 216.392C21.2902 214.219 21.8661 212.086 22.9472 210.2C24.0283 208.315 25.578 206.742 27.4457 205.633C26.6076 204.415 26.1584 202.971 26.1575 201.492C26.1931 199.462 27.0324 197.529 28.4908 196.118C29.9493 194.707 31.9076 193.933 33.9355 193.967C35.5984 193.948 37.2233 194.466 38.5699 195.443C39.9165 196.42 40.9134 197.805 41.4132 199.393C42.4746 197.722 43.9424 196.349 45.6789 195.401C47.4155 194.454 49.364 193.964 51.3415 193.977C57.7441 193.977 62.9359 199 62.9359 205.192C62.9371 206.517 62.6959 207.832 62.224 209.071C62.4613 209.071 62.7083 209.037 62.9359 209.037C68.0744 209.037 72.2395 213.066 72.2395 218.036C72.2389 218.339 72.2228 218.642 72.1911 218.943C74.2403 219.77 75.9983 221.188 77.2424 223.016C78.4865 224.844 79.1607 227.001 79.1796 229.213C79.1796 235.385 74.0072 240.389 67.624 240.389C66.9537 240.389 66.2847 240.332 65.6238 240.219C65.6577 240.593 65.6771 240.966 65.6771 241.349C65.6771 248.278 59.8654 253.893 52.7121 253.893C50.083 253.9 47.5115 253.122 45.3264 251.658C43.5585 253.109 41.341 253.9 39.0546 253.893C33.7272 253.893 29.3684 249.699 29.3684 244.52C29.3684 244.297 29.3684 244.074 29.4023 243.856H29.3684C23.6391 243.856 18.9945 239.361 18.9945 233.824C19.0069 231.95 19.5451 230.117 20.5479 228.534C21.5506 226.951 22.9775 225.683 24.6658 224.873V224.873Z" fill="url(#paint14_linear)"/>
</g>
<path id="&#60;Path&#62;_6" d="M25.6977 224.834C23.635 222.636 22.4852 219.734 22.4819 216.717C22.4939 214.636 23.044 212.594 24.0786 210.789C25.1132 208.984 26.597 207.479 28.3856 206.419C27.5838 205.252 27.1548 203.869 27.1555 202.452C27.1719 201.489 27.3775 200.539 27.7608 199.656C28.144 198.773 28.6973 197.974 29.389 197.305C30.0807 196.636 30.8973 196.11 31.7921 195.756C32.6869 195.403 33.6425 195.23 34.6041 195.247C36.1923 195.231 37.7437 195.726 39.0297 196.659C40.3157 197.592 41.2685 198.914 41.7477 200.43C42.7634 198.831 44.1681 197.517 45.8302 196.61C47.4923 195.703 49.3571 195.234 51.2498 195.247C57.3764 195.247 62.3454 200.052 62.3454 205.982C62.3466 207.248 62.1168 208.503 61.6673 209.687C61.8901 209.687 62.1177 209.653 62.3454 209.653C67.266 209.653 71.2518 213.532 71.2518 218.269C71.2522 218.559 71.2377 218.849 71.2082 219.137C73.1689 219.93 74.8505 221.288 76.0402 223.038C77.2299 224.789 77.8742 226.853 77.8917 228.97C77.8917 234.881 72.9421 239.672 66.8301 239.672C66.1808 239.671 65.5328 239.616 64.8928 239.507C64.9267 239.861 64.9461 240.224 64.9461 240.588C64.9461 247.216 59.3911 252.594 52.5333 252.594C50.0257 252.594 47.5747 251.848 45.4914 250.45C43.7999 251.839 41.6783 252.595 39.4908 252.589C34.3717 252.589 30.2211 248.574 30.2211 243.618C30.2211 243.405 30.2211 243.192 30.255 242.983H30.2211C24.7388 242.983 20.2928 238.682 20.2928 233.378C20.3071 231.591 20.821 229.843 21.7762 228.333C22.7314 226.823 24.0899 225.611 25.6977 224.834V224.834Z" fill="#2EC4B6"/>
<path id="Vector_48" d="M48.4893 212.276H44.857V279H48.4893V212.276Z" fill="url(#paint15_linear)"/>
<path id="Vector_49" d="M47.7338 212.276H45.7287V279H47.7338V212.276Z" fill="#795548"/>
<path id="Vector_50" d="M35.7545 219.401L34.3226 220.806L46.2227 232.96L47.6546 231.554L35.7545 219.401Z" fill="#795548"/>
<path id="Vector_51" d="M58.7001 233.209L46.3631 241.877L47.5149 243.52L59.8518 234.852L58.7001 233.209Z" fill="#795548"/>
<g id="&#60;Group&#62;_7">
<path id="Vector_52" d="M78.6521 225.402C79.8751 224.006 80.784 222.363 81.3172 220.584C81.8504 218.806 81.9953 216.933 81.7422 215.094C81.4892 213.254 80.8439 211.491 79.8503 209.923C78.8567 208.355 77.538 207.019 75.9835 206.006C76.7855 204.764 77.2111 203.316 77.2088 201.836C77.2533 200.031 76.636 198.272 75.4734 196.891C74.3107 195.51 72.6834 194.604 70.8986 194.342C69.1138 194.081 67.2952 194.483 65.7862 195.472C64.2773 196.462 63.1825 197.97 62.7086 199.713C61.7461 198.059 60.3688 196.686 58.7132 195.729C57.0576 194.772 55.181 194.265 53.2694 194.258C51.8045 194.272 50.3569 194.576 49.0094 195.152C47.6619 195.727 46.441 196.563 45.4167 197.611C44.3923 198.66 43.5846 199.901 43.0398 201.262C42.495 202.623 42.2238 204.079 42.2417 205.546C42.2416 206.868 42.4694 208.18 42.9149 209.425C42.6921 209.425 42.4693 209.391 42.2417 209.391C41.0618 209.403 39.8959 209.648 38.8111 210.113C37.7263 210.578 36.7441 211.253 35.9208 212.099C35.0976 212.945 34.4496 213.946 34.0142 215.044C33.5787 216.142 33.3645 217.316 33.3837 218.497C33.3837 218.807 33.3837 219.113 33.4273 219.413C31.4385 220.307 29.7517 221.759 28.5721 223.595C27.3925 225.43 26.7708 227.569 26.7825 229.751C26.7554 232.7 27.8964 235.541 29.9559 237.65C32.0154 239.759 34.8256 240.965 37.7715 241.005C38.4097 241.005 39.0467 240.948 39.6749 240.835C39.641 241.209 39.6216 241.587 39.6216 241.97C39.6216 248.942 45.1427 254.577 51.9521 254.577C54.4696 254.576 56.9243 253.789 58.9746 252.327C60.6238 253.775 62.7425 254.575 64.9364 254.577C67.4052 254.546 69.761 253.536 71.4863 251.767C73.2116 249.999 74.1654 247.618 74.1383 245.146C74.1383 244.918 74.1383 244.7 74.1044 244.477H74.1383C76.7839 244.446 79.3092 243.365 81.1591 241.471C83.0089 239.577 84.0321 237.025 84.0037 234.377C84.0115 232.535 83.5173 230.726 82.5742 229.144C81.6312 227.563 80.2752 226.269 78.6521 225.402V225.402Z" fill="url(#paint16_linear)"/>
</g>
<path id="&#60;Path&#62;_7" d="M77.2282 225.343C78.3722 224.033 79.2219 222.492 79.7199 220.825C80.2179 219.158 80.3525 217.403 80.1147 215.679C79.8768 213.955 79.2721 212.303 78.3413 210.833C77.4105 209.363 76.1754 208.111 74.7195 207.16C75.4712 205.994 75.8699 204.635 75.8673 203.247C75.9124 201.551 75.3346 199.897 74.2434 198.599C73.1522 197.301 71.6234 196.448 69.9464 196.202C68.2694 195.957 66.5607 196.335 65.1438 197.266C63.7269 198.198 62.7002 199.616 62.2582 201.255C61.3545 199.702 60.0612 198.413 58.5067 197.515C56.9521 196.617 55.1901 196.141 53.3953 196.134C50.6233 196.173 47.9796 197.31 46.044 199.297C44.1084 201.284 43.0388 203.958 43.0699 206.734C43.0688 207.98 43.2835 209.217 43.7043 210.39C43.4961 210.39 43.283 210.356 43.0699 210.356C40.8421 210.381 38.7157 211.292 37.1581 212.886C35.6006 214.481 34.7394 216.63 34.764 218.861C34.764 219.151 34.764 219.438 34.8075 219.719C32.9413 220.557 31.3583 221.919 30.251 223.641C29.1436 225.362 28.5595 227.369 28.5696 229.416C28.5399 232.186 29.6098 234.854 31.5442 236.834C33.4785 238.815 36.119 239.945 38.8854 239.977C39.4847 239.977 40.0827 239.923 40.6725 239.817C40.6435 240.171 40.6241 240.525 40.6241 240.884C40.6241 247.43 45.8062 252.734 52.1991 252.734C54.562 252.736 56.8665 251.998 58.7905 250.625C60.3378 251.98 62.3235 252.728 64.3795 252.729C65.5281 252.717 66.663 252.478 67.7194 252.026C68.7757 251.574 69.7328 250.918 70.536 250.096C71.3393 249.274 71.9729 248.301 72.4006 247.234C72.8284 246.167 73.042 245.025 73.0292 243.875C73.0292 243.662 73.0292 243.454 73.0002 243.245H73.0292C74.2593 243.231 75.4745 242.975 76.6056 242.491C77.7367 242.006 78.7615 241.304 79.6213 240.423C80.4812 239.542 81.1594 238.501 81.6172 237.358C82.0749 236.215 82.3033 234.992 82.2892 233.761C82.2916 232.029 81.8214 230.33 80.9295 228.847C80.0375 227.363 78.7577 226.152 77.2282 225.343V225.343Z" fill="#00897B"/>
<path id="Vector_53" d="M58.9649 211.815H56.277V278.772H58.9649V211.815Z" fill="url(#paint17_linear)"/>
<path id="Vector_54" d="M58.3934 212.756H57.0422V278.772H58.3934V212.756Z" fill="#795548"/>
<path id="Vector_55" d="M68.025 220.194L56.9259 232.194L57.9173 233.114L69.0165 221.113L68.025 220.194Z" fill="#795548"/>
<path id="Vector_56" d="M46.311 233.89L45.5053 234.976L57.0142 243.533L57.8198 242.447L46.311 233.89Z" fill="#795548"/>
<g id="glass">
<path id="Vector_57" d="M364.472 68.5918C357.623 61.458 349.417 55.768 340.339 51.8569C331.26 47.9457 321.492 45.8925 311.608 45.8179C301.725 45.7434 291.927 47.649 282.791 51.4228C273.654 55.1965 265.364 60.7621 258.408 67.7918C230.362 96.099 229.887 142.187 257.319 171.071C269.368 183.776 285.52 191.802 302.913 193.727C320.307 195.652 337.82 191.352 352.35 181.588L405.914 237.349C406.242 237.691 406.634 237.965 407.068 238.156C407.502 238.346 407.969 238.449 408.443 238.459C408.917 238.468 409.388 238.384 409.829 238.211C410.27 238.038 410.673 237.78 411.014 237.451L424.357 224.606C424.699 224.278 424.973 223.885 425.163 223.451C425.353 223.016 425.456 222.549 425.465 222.075C425.475 221.6 425.391 221.129 425.218 220.687C425.045 220.245 424.787 219.842 424.458 219.501L370.894 163.74C381.165 149.654 386.151 132.396 384.976 114.996C383.802 97.5957 376.542 81.1661 364.472 68.5918V68.5918ZM347.788 158.256C340.233 165.531 330.694 170.4 320.376 172.247C310.057 174.095 299.424 172.837 289.819 168.634C280.215 164.431 272.071 157.47 266.417 148.633C260.764 139.796 257.855 129.479 258.058 118.987C258.261 108.495 261.568 98.2984 267.559 89.6874C273.55 81.0763 281.958 74.4374 291.717 70.6101C301.477 66.7827 312.152 65.9389 322.391 68.1853C332.63 70.4317 341.974 75.6674 349.24 83.2303C354.066 88.252 357.855 94.1761 360.394 100.664C362.932 107.152 364.169 114.077 364.034 121.044C363.899 128.011 362.395 134.883 359.607 141.268C356.82 147.652 352.803 153.425 347.788 158.256V158.256Z" fill="url(#paint18_linear)"/>
<path id="Vector_58" d="M271.804 105.253C265.842 105.253 265.833 114.524 271.804 114.524C277.776 114.524 277.771 105.253 271.804 105.253Z" fill="url(#paint19_linear)"/>
<path id="Vector_59" d="M313.348 75.5498C297.308 75.1862 282.706 83.2449 274.947 95.4299C272.415 99.3962 279.606 102.902 282.125 98.9549C288.552 88.884 300.766 82.4691 313.963 82.823C327.805 83.1721 340.402 91.0999 347.071 102.102C349.604 106.277 356.229 102.48 353.715 98.3294C345.623 84.9613 329.921 75.9232 313.348 75.5498Z" fill="url(#paint20_linear)"/>
<path id="Vector_60" d="M370.284 65.7675C363.435 58.6336 355.229 52.9437 346.15 49.0325C337.072 45.1214 327.303 43.0681 317.42 42.9935C307.537 42.919 297.739 44.8247 288.602 48.5984C279.466 52.3722 271.176 57.9377 264.22 64.9674C236.174 93.2746 235.699 139.362 263.13 168.247C275.18 180.952 291.331 188.978 308.725 190.903C326.119 192.828 343.631 188.527 358.161 178.764L411.726 234.525C412.054 234.867 412.446 235.141 412.88 235.332C413.314 235.522 413.781 235.625 414.255 235.634C414.729 235.644 415.199 235.56 415.641 235.387C416.082 235.214 416.484 234.955 416.826 234.626L430.173 221.777C430.515 221.449 430.789 221.056 430.979 220.622C431.17 220.187 431.272 219.72 431.282 219.245C431.291 218.771 431.207 218.3 431.034 217.858C430.862 217.416 430.604 217.013 430.275 216.671L376.71 160.91C386.979 146.824 391.964 129.567 390.788 112.168C389.613 94.7691 382.353 78.3408 370.284 65.7675V65.7675ZM353.599 155.431C346.045 162.706 336.506 167.576 326.187 169.423C315.869 171.27 305.235 170.013 295.631 165.81C286.026 161.606 277.883 154.646 272.229 145.809C266.576 136.972 263.667 126.655 263.87 116.163C264.073 105.67 267.379 95.474 273.371 86.863C279.362 78.252 287.769 71.613 297.529 67.7857C307.289 63.9584 317.964 63.1145 328.203 65.3609C338.442 67.6073 347.785 72.843 355.052 80.4059C359.877 85.4276 363.667 91.3517 366.206 97.8398C368.744 104.328 369.981 111.253 369.846 118.22C369.711 125.187 368.207 132.059 365.419 138.443C362.632 144.828 358.615 150.6 353.599 155.431V155.431Z" fill="#FF7477"/>
<path id="Vector_61" d="M277.616 102.417C271.654 102.417 271.644 111.688 277.616 111.688C283.588 111.688 283.583 102.417 277.616 102.417Z" fill="#FF7477"/>
<path id="Vector_62" d="M319.16 72.7279C303.12 72.3642 288.518 80.4229 280.759 92.6079C278.226 96.5742 285.418 100.08 287.937 96.1329C294.363 86.062 306.578 79.6471 319.775 80.001C333.617 80.3501 346.214 88.2779 352.882 99.2798C355.415 103.455 362.041 99.658 359.527 95.5074C351.434 82.149 335.733 73.1061 319.16 72.7279Z" fill="#FF7477"/>
</g>
</g>
</g>
<defs>
<linearGradient id="paint0_linear" x1="433.036" y1="224.417" x2="433.036" y2="118.956" gradientUnits="userSpaceOnUse">
<stop stop-color="#808080" stop-opacity="0.25"/>
<stop offset="0.54" stop-color="#808080" stop-opacity="0.12"/>
<stop offset="1" stop-color="#808080" stop-opacity="0.1"/>
</linearGradient>
<linearGradient id="paint1_linear" x1="5830.56" y1="54809.9" x2="5830.56" y2="26358.3" gradientUnits="userSpaceOnUse">
<stop stop-color="#808080" stop-opacity="0.25"/>
<stop offset="0.54" stop-color="#808080" stop-opacity="0.12"/>
<stop offset="1" stop-color="#808080" stop-opacity="0.1"/>
</linearGradient>
<linearGradient id="paint2_linear" x1="93787.9" y1="68044" x2="93787.9" y2="44083.7" gradientUnits="userSpaceOnUse">
<stop stop-color="#808080" stop-opacity="0.25"/>
<stop offset="0.54" stop-color="#808080" stop-opacity="0.12"/>
<stop offset="1" stop-color="#808080" stop-opacity="0.1"/>
</linearGradient>
<linearGradient id="paint3_linear" x1="4118.19" y1="56369" x2="4118.19" y2="26839.7" gradientUnits="userSpaceOnUse">
<stop stop-color="#808080" stop-opacity="0.25"/>
<stop offset="0.54" stop-color="#808080" stop-opacity="0.12"/>
<stop offset="1" stop-color="#808080" stop-opacity="0.1"/>
</linearGradient>
<linearGradient id="paint4_linear" x1="63043.5" y1="48076" x2="63043.5" y2="37423.5" gradientUnits="userSpaceOnUse">
<stop stop-color="#808080" stop-opacity="0.25"/>
<stop offset="0.54" stop-color="#808080" stop-opacity="0.12"/>
<stop offset="1" stop-color="#808080" stop-opacity="0.1"/>
</linearGradient>
<linearGradient id="paint5_linear" x1="3483.72" y1="38548.3" x2="3483.72" y2="25336.3" gradientUnits="userSpaceOnUse">
<stop stop-color="#808080" stop-opacity="0.25"/>
<stop offset="0.54" stop-color="#808080" stop-opacity="0.12"/>
<stop offset="1" stop-color="#808080" stop-opacity="0.1"/>
</linearGradient>
<linearGradient id="paint6_linear" x1="57667.4" y1="48784.4" x2="57667.4" y2="37989.2" gradientUnits="userSpaceOnUse">
<stop stop-color="#808080" stop-opacity="0.25"/>
<stop offset="0.54" stop-color="#808080" stop-opacity="0.12"/>
<stop offset="1" stop-color="#808080" stop-opacity="0.1"/>
</linearGradient>
<linearGradient id="paint7_linear" x1="2593.87" y1="38925.3" x2="2593.87" y2="25621.9" gradientUnits="userSpaceOnUse">
<stop stop-color="#808080" stop-opacity="0.25"/>
<stop offset="0.54" stop-color="#808080" stop-opacity="0.12"/>
<stop offset="1" stop-color="#808080" stop-opacity="0.1"/>
</linearGradient>
<linearGradient id="paint8_linear" x1="74820.8" y1="59345.6" x2="74820.8" y2="28797.8" gradientUnits="userSpaceOnUse">
<stop stop-color="#808080" stop-opacity="0.25"/>
<stop offset="0.54" stop-color="#808080" stop-opacity="0.12"/>
<stop offset="1" stop-color="#808080" stop-opacity="0.1"/>
</linearGradient>
<linearGradient id="paint9_linear" x1="136426" y1="29222.3" x2="136426" y2="22470.8" gradientUnits="userSpaceOnUse">
<stop stop-color="#808080" stop-opacity="0.25"/>
<stop offset="0.54" stop-color="#808080" stop-opacity="0.12"/>
<stop offset="1" stop-color="#808080" stop-opacity="0.1"/>
</linearGradient>
<linearGradient id="paint10_linear" x1="37728.5" y1="111588" x2="37728.5" y2="3106.66" gradientUnits="userSpaceOnUse">
<stop stop-color="#808080" stop-opacity="0.25"/>
<stop offset="0.54" stop-color="#808080" stop-opacity="0.12"/>
<stop offset="1" stop-color="#808080" stop-opacity="0.1"/>
</linearGradient>
<linearGradient id="paint11_linear" x1="43686.2" y1="14747.3" x2="43686.2" y2="242.897" gradientUnits="userSpaceOnUse">
<stop stop-color="#808080" stop-opacity="0.25"/>
<stop offset="0.54" stop-color="#808080" stop-opacity="0.12"/>
<stop offset="1" stop-color="#808080" stop-opacity="0.1"/>
</linearGradient>
<linearGradient id="paint12_linear" x1="15536.2" y1="41205.8" x2="15536.2" y2="33801.2" gradientUnits="userSpaceOnUse">
<stop stop-color="#808080" stop-opacity="0.25"/>
<stop offset="0.54" stop-color="#808080" stop-opacity="0.12"/>
<stop offset="1" stop-color="#808080" stop-opacity="0.1"/>
</linearGradient>
<linearGradient id="paint13_linear" x1="454.123" y1="32688.2" x2="454.123" y2="23506.3" gradientUnits="userSpaceOnUse">
<stop stop-color="#808080" stop-opacity="0.25"/>
<stop offset="0.54" stop-color="#808080" stop-opacity="0.12"/>
<stop offset="1" stop-color="#808080" stop-opacity="0.1"/>
</linearGradient>
<linearGradient id="paint14_linear" x1="12563.4" y1="41205.8" x2="12563.4" y2="33801.2" gradientUnits="userSpaceOnUse">
<stop stop-color="#808080" stop-opacity="0.25"/>
<stop offset="0.54" stop-color="#808080" stop-opacity="0.12"/>
<stop offset="1" stop-color="#808080" stop-opacity="0.1"/>
</linearGradient>
<linearGradient id="paint15_linear" x1="252.407" y1="32688.2" x2="252.407" y2="23506.3" gradientUnits="userSpaceOnUse">
<stop stop-color="#808080" stop-opacity="0.25"/>
<stop offset="0.54" stop-color="#808080" stop-opacity="0.12"/>
<stop offset="1" stop-color="#808080" stop-opacity="0.1"/>
</linearGradient>
<linearGradient id="paint16_linear" x1="12700.3" y1="41564" x2="12700.3" y2="34060.9" gradientUnits="userSpaceOnUse">
<stop stop-color="#808080" stop-opacity="0.25"/>
<stop offset="0.54" stop-color="#808080" stop-opacity="0.12"/>
<stop offset="1" stop-color="#808080" stop-opacity="0.1"/>
</linearGradient>
<linearGradient id="paint17_linear" x1="270.638" y1="32769.6" x2="270.638" y2="23523.5" gradientUnits="userSpaceOnUse">
<stop stop-color="#808080" stop-opacity="0.25"/>
<stop offset="0.54" stop-color="#808080" stop-opacity="0.12"/>
<stop offset="1" stop-color="#808080" stop-opacity="0.1"/>
</linearGradient>
<linearGradient id="paint18_linear" x1="331.268" y1="238.474" x2="331.268" y2="45.8219" gradientUnits="userSpaceOnUse">
<stop stop-color="#B3B3B3" stop-opacity="0.25"/>
<stop offset="0.54" stop-color="#B3B3B3" stop-opacity="0.1"/>
<stop offset="1" stop-color="#B3B3B3" stop-opacity="0.05"/>
</linearGradient>
<linearGradient id="paint19_linear" x1="271.804" y1="114.529" x2="271.804" y2="105.253" gradientUnits="userSpaceOnUse">
<stop stop-opacity="0.12"/>
<stop offset="0.55" stop-opacity="0.09"/>
<stop offset="1" stop-opacity="0.02"/>
</linearGradient>
<linearGradient id="paint20_linear" x1="60658" y1="10717.4" x2="60658" y2="9058.02" gradientUnits="userSpaceOnUse">
<stop stop-opacity="0.12"/>
<stop offset="0.55" stop-opacity="0.09"/>
<stop offset="1" stop-opacity="0.02"/>
</linearGradient>
<clipPath id="clip0">
<rect width="467" height="236" fill="white" transform="translate(18.9997 43)"/>
</clipPath>
</defs>
</svg>
